<svg viewBox="0 0 440 368" fill="none" xmlns="http://www.w3.org/2000/svg">
<g clip-path="url(#clip0_1019_7229)">
<path d="M79.0091 262.141L127.825 208.762C128.116 208.447 128.47 208.197 128.862 208.028C129.255 207.859 129.679 207.774 130.106 207.781C130.533 207.787 130.954 207.883 131.342 208.063C131.73 208.243 132.077 208.503 132.359 208.827L180.021 263.144C180.434 263.626 180.985 263.966 181.598 264.118C182.211 264.269 182.856 264.223 183.442 263.987C184.029 263.751 184.527 263.337 184.869 262.801C185.211 262.266 185.379 261.636 185.349 261L182.451 188.425C182.437 187.994 182.512 187.566 182.671 187.167C182.831 186.768 183.071 186.407 183.377 186.107C183.683 185.807 184.048 185.575 184.448 185.426C184.848 185.277 185.275 185.213 185.7 185.24L257.524 189.723C258.153 189.769 258.781 189.615 259.32 189.283C259.859 188.951 260.282 188.458 260.53 187.872C260.778 187.287 260.839 186.638 260.704 186.015C260.569 185.393 260.245 184.829 259.777 184.401L206.903 135.165C206.588 134.873 206.338 134.518 206.167 134.122C205.997 133.726 205.911 133.298 205.915 132.866C205.919 132.435 206.012 132.009 206.189 131.616C206.366 131.223 206.623 130.872 206.943 130.585L260.788 82.4886C261.266 82.0725 261.603 81.5163 261.753 80.8976C261.903 80.2789 261.858 79.6286 261.624 79.0371C261.39 78.4456 260.979 77.9423 260.449 77.5976C259.918 77.2528 259.294 77.0837 258.663 77.1137L186.729 80.0492C186.303 80.0636 185.878 79.988 185.483 79.8271C185.087 79.6663 184.729 79.4237 184.432 79.115C184.135 78.8063 183.905 78.4385 183.757 78.0349C183.609 77.6313 183.547 77.2009 183.573 76.7714L188.028 4.30698C188.074 3.67168 187.921 3.038 187.592 2.4943C187.264 1.95061 186.775 1.52399 186.194 1.27382C185.614 1.02364 184.971 0.962397 184.354 1.09865C183.737 1.2349 183.178 1.56187 182.754 2.03395L133.945 55.3875C133.658 55.7052 133.308 55.9584 132.918 56.1306C132.527 56.3028 132.106 56.3902 131.68 56.3871C131.254 56.3839 130.833 56.2904 130.446 56.1125C130.058 55.9346 129.712 55.6762 129.43 55.3543L81.7418 1.03101C81.3268 0.558397 80.7772 0.22695 80.1681 0.0818866C79.559 -0.0631765 78.9203 -0.0146762 78.3396 0.220796C77.7589 0.456269 77.2645 0.867178 76.9243 1.39717C76.584 1.92717 76.4145 2.55034 76.4391 3.18126L79.3121 75.7505C79.3269 76.1789 79.2531 76.6056 79.0954 77.0036C78.9378 77.4016 78.6997 77.7622 78.3964 78.0624C78.0931 78.3625 77.7312 78.5957 77.3337 78.7469C76.9362 78.8982 76.5118 78.9643 76.0877 78.941L4.23952 74.4518C3.60984 74.4064 2.98173 74.5602 2.44278 74.892C1.90384 75.2237 1.48092 75.7169 1.23286 76.3026C0.984797 76.8884 0.924005 77.5375 1.05895 78.1597C1.1939 78.7819 1.51779 79.3461 1.98563 79.7737L54.9545 129.166C55.2667 129.457 55.5149 129.811 55.6828 130.205C55.8507 130.599 55.9346 131.025 55.9291 131.454C55.9236 131.883 55.8288 132.306 55.6508 132.695C55.4729 133.085 55.2157 133.433 54.896 133.715L1.05116 181.812C0.573206 182.228 0.235737 182.784 0.0858203 183.403C-0.0640966 184.021 -0.0189932 184.672 0.214793 185.263C0.448579 185.855 0.859425 186.358 1.39011 186.703C1.92079 187.047 2.54494 187.217 3.17547 187.187L75.1038 184.276C75.5283 184.261 75.9513 184.336 76.3458 184.495C76.7403 184.654 77.0976 184.894 77.395 185.2C77.6925 185.506 77.9235 185.871 78.0734 186.272C78.2232 186.673 78.2887 187.101 78.2655 187.529L73.8044 260.018C73.8073 260.626 73.9892 261.218 74.3269 261.721C74.6647 262.224 75.1429 262.614 75.7009 262.841C76.2589 263.069 76.8714 263.124 77.4605 262.999C78.0496 262.874 78.5886 262.576 79.0091 262.141Z" fill="url(#paint0_radial_1019_7229)" fill-opacity="0.5"/>
<path d="M325.967 345.147L356.413 311.922C356.595 311.726 356.815 311.57 357.06 311.465C357.306 311.359 357.57 311.307 357.836 311.311C358.103 311.315 358.365 311.374 358.607 311.487C358.849 311.599 359.065 311.761 359.241 311.962L388.969 345.772C389.226 346.072 389.57 346.284 389.952 346.378C390.335 346.472 390.737 346.444 391.102 346.297C391.468 346.15 391.779 345.892 391.992 345.558C392.206 345.225 392.31 344.833 392.292 344.437L390.484 299.263C390.475 298.995 390.522 298.728 390.622 298.48C390.721 298.231 390.871 298.007 391.062 297.82C391.253 297.633 391.48 297.489 391.73 297.396C391.979 297.303 392.245 297.264 392.511 297.281L437.308 300.071C437.701 300.099 438.092 300.004 438.429 299.797C438.765 299.591 439.028 299.284 439.183 298.919C439.338 298.554 439.376 298.15 439.292 297.763C439.207 297.376 439.005 297.025 438.714 296.758L405.735 266.112C405.539 265.93 405.383 265.708 405.276 265.462C405.17 265.215 405.117 264.949 405.119 264.681C405.121 264.412 405.18 264.147 405.29 263.902C405.4 263.657 405.561 263.439 405.76 263.26L439.344 233.323C439.642 233.064 439.852 232.718 439.946 232.333C440.039 231.948 440.011 231.543 439.865 231.175C439.72 230.806 439.463 230.493 439.132 230.279C438.801 230.064 438.412 229.959 438.019 229.977L393.153 231.805C392.887 231.814 392.622 231.766 392.375 231.666C392.128 231.566 391.905 231.415 391.72 231.223C391.535 231.031 391.391 230.802 391.299 230.551C391.207 230.3 391.168 230.032 391.184 229.764L393.963 184.659C393.991 184.263 393.896 183.869 393.691 183.531C393.486 183.192 393.181 182.927 392.819 182.771C392.457 182.615 392.056 182.577 391.671 182.662C391.286 182.747 390.938 182.95 390.673 183.244L360.23 216.454C360.051 216.652 359.833 216.809 359.59 216.916C359.346 217.024 359.083 217.078 358.818 217.076C358.552 217.074 358.29 217.016 358.048 216.905C357.806 216.794 357.59 216.634 357.414 216.433L327.671 182.62C327.412 182.326 327.069 182.119 326.689 182.029C326.31 181.939 325.911 181.969 325.549 182.115C325.187 182.262 324.878 182.518 324.666 182.848C324.454 183.178 324.348 183.565 324.364 183.958L326.156 229.129C326.165 229.395 326.119 229.661 326.02 229.909C325.922 230.157 325.774 230.381 325.584 230.568C325.395 230.755 325.17 230.9 324.922 230.994C324.674 231.088 324.409 231.129 324.144 231.115L279.332 228.32C278.939 228.292 278.547 228.388 278.211 228.594C277.875 228.801 277.611 229.108 277.457 229.473C277.302 229.837 277.264 230.241 277.348 230.628C277.432 231.016 277.634 231.367 277.926 231.633L310.963 262.377C311.158 262.559 311.313 262.779 311.418 263.024C311.522 263.269 311.575 263.534 311.571 263.801C311.568 264.068 311.509 264.332 311.398 264.574C311.287 264.817 311.126 265.033 310.927 265.209L277.343 295.147C277.045 295.406 276.835 295.752 276.741 296.137C276.648 296.522 276.676 296.927 276.822 297.295C276.968 297.663 277.224 297.976 277.555 298.191C277.886 298.405 278.275 298.511 278.668 298.492L323.531 296.681C323.796 296.671 324.059 296.718 324.305 296.817C324.552 296.915 324.774 297.065 324.96 297.255C325.145 297.446 325.289 297.673 325.383 297.923C325.476 298.172 325.517 298.439 325.503 298.705L322.72 343.826C322.722 344.204 322.836 344.573 323.046 344.886C323.257 345.199 323.555 345.442 323.903 345.583C324.251 345.725 324.633 345.759 325.001 345.681C325.368 345.604 325.704 345.418 325.967 345.147Z" fill="url(#paint1_radial_1019_7229)" fill-opacity="0.5"/>
<path d="M227.933 94.7239C230.817 102.104 230.73 117.361 225.939 123.592C223.439 126.848 220.04 129.451 218.264 133.18C215.94 138.07 216.938 144.155 219.854 148.697C222.77 153.237 227.363 156.414 232.199 158.645C237.582 161.147 244.171 162.522 249.193 159.322C253.03 156.888 255.058 152.325 256.285 147.863C259.728 135.378 258.478 121.947 254.904 109.462C251.33 96.9774 245.509 85.3379 239.753 73.8223" fill="#3B3F51"/>
<path d="M208.691 199.252L186.66 181.842C186.66 181.842 205.984 143.326 208.893 141.934C211.803 140.541 251.626 135.304 251.626 135.304C263.491 154.601 277.525 149.134 292.495 136.262C293.831 136.543 317.388 142.091 323.544 142.923C329.699 143.753 354.112 179.856 354.112 179.856L327.322 209.361L325.802 247.056C325.802 247.056 324.716 273.868 328.961 287.706L222.268 291.288C223.434 285.54 224.254 279.722 224.721 273.868C225.122 269.183 226.35 264.512 225.427 258.491C222.507 239.373 208.691 199.252 208.691 199.252Z" fill="white"/>
<path d="M257.479 286.535L327.844 283.626L329.721 287.505L257.479 290.415V286.535Z" fill="#C8CDDA"/>
<path d="M220.651 161.189C220.542 161.371 220.46 161.567 220.41 161.772C220.248 162.231 220.042 162.791 219.799 163.486C219.281 165.056 218.567 167.209 217.692 169.82C216.816 172.432 215.78 175.717 214.628 179.237C213.331 183.084 212.36 187.028 211.726 191.029C211.233 195.07 211.439 199.162 212.337 203.135C213.05 206.369 214.021 209.543 215.238 212.63C216.252 215.265 217.173 217.361 217.819 218.808C218.125 219.464 218.378 220.013 218.579 220.455C218.657 220.655 218.761 220.843 218.89 221.015C218.854 220.805 218.789 220.602 218.694 220.41L218.037 218.718C217.449 217.248 216.597 215.131 215.63 212.496C214.485 209.409 213.565 206.248 212.878 203.035C212.03 199.111 211.844 195.079 212.325 191.097C212.95 187.128 213.898 183.216 215.158 179.393C216.309 175.851 217.255 172.667 218.095 169.943C218.936 167.219 219.546 165.146 220.018 163.554L220.525 161.806C220.597 161.606 220.64 161.399 220.651 161.189Z" fill="#36383F"/>
<g opacity="0.3">
<path d="M297.604 262.283C293.014 255.932 286.855 250.974 279.774 247.929C272.719 244.908 265.298 242.894 257.717 241.942C254.73 241.493 251.48 241.178 248.862 242.74C246.242 244.301 245.005 248.536 247.286 250.602C248.542 251.51 250.047 251.974 251.578 251.927C262.031 252.714 273.07 252.747 282.11 258.251C285.685 260.419 288.858 263.406 292.802 264.72C294.595 265.316 297.246 264.979 297.431 263.047" fill="#3B3F51"/>
</g>
<g opacity="0.3">
<path d="M210.855 194.23C209.324 188.805 209.511 183.016 211.387 177.709C213.257 172.439 215.796 167.45 218.938 162.872C217.439 173.497 212.735 183.493 211.8 194.198" fill="#36383F"/>
</g>
<path d="M244.536 240.39C244.745 240.413 244.956 240.413 245.164 240.39H246.962H248.272L249.81 240.492C250.893 240.581 252.181 240.626 253.567 240.839L255.733 241.12C256.491 241.232 257.26 241.4 258.073 241.546C259.696 241.815 261.397 242.276 263.194 242.669C267.061 243.752 270.849 245.113 274.532 246.744C278.206 248.408 281.775 250.309 285.22 252.434C286.801 253.434 288.306 254.376 289.649 255.353C290.992 256.33 292.27 257.205 293.407 258.058C294.544 258.911 295.572 259.72 296.417 260.416C297.262 261.111 298.052 261.741 298.648 262.256L300.055 263.379C300.213 263.524 300.388 263.649 300.575 263.749C300.442 263.581 300.293 263.427 300.131 263.289L298.799 262.032C298.215 261.482 297.489 260.831 296.634 260.113C295.778 259.394 294.804 258.53 293.666 257.676C292.529 256.824 291.317 255.836 289.941 254.893C288.566 253.949 287.083 252.939 285.512 251.918C282.062 249.752 278.477 247.825 274.781 246.149C271.073 244.502 267.251 243.148 263.346 242.096C261.526 241.669 259.815 241.21 258.181 240.974C257.358 240.839 256.578 240.671 255.821 240.57L253.655 240.334C252.257 240.143 250.99 240.121 249.875 240.065C249.312 240.065 248.792 240.009 248.316 240.009H247.005L245.197 240.076C244.961 240.142 244.738 240.248 244.536 240.39Z" fill="#36383F"/>
<path d="M255.477 29.1056C255.411 25.5167 251.403 22.974 247.934 23.5816C244.465 24.1891 241.756 27.058 240.138 30.2419C238.519 33.4257 237.737 36.9922 236.516 40.3673C233.212 49.3678 226.727 57.1195 224.402 66.4798C222.897 73.1252 223.103 80.0554 224.998 86.5958C226.882 93.0919 229.479 99.3495 232.739 105.249C234.772 108.792 236.485 112.516 237.858 116.376C239.236 120.269 239.363 124.509 238.222 128.482C237.975 128.983 237.92 129.561 238.068 130.102C238.41 130.867 239.478 130.901 240.27 130.687C244.311 129.629 247.109 125.568 247.803 121.36C248.496 117.152 247.439 112.855 245.963 108.861C244.487 104.867 242.593 100.985 241.503 96.9238C239.125 87.9234 240.777 78.383 241.196 69.0563C241.426 63.8023 241.261 58.4919 242.296 53.3054C243.331 48.119 245.721 43.0225 250.004 40.0862C251.668 38.961 253.583 38.1285 254.982 36.711C256.381 35.2934 257.085 32.762 255.819 31.1644" fill="#3B3F51"/>
<path d="M232.146 39.2309C235.9 29.9206 241.841 26.3 244.344 25.6533V32.4422L233.085 57.6575L230.27 80.9332L232.146 115.847L230.27 131.364C219.324 140.739 198.184 166.278 189.928 150.761C179.607 131.364 190.866 122.635 196.495 118.756C200.998 115.653 198.372 110.998 196.495 109.058C189.928 94.5107 204.939 92.571 208.691 89.6616C212.445 86.7521 213.383 82.8728 210.568 78.9936C208.316 75.8901 207.128 70.5884 206.816 68.3255C205.877 54.748 215.259 48.9291 221.827 47.9593C227.081 47.1834 230.896 41.8171 232.146 39.2309Z" fill="#3B3F51"/>
<path d="M265.923 148.541C277.181 152.025 286.875 142.736 290.315 137.657C285.625 152.896 269.675 155.072 260.293 150.719C252.787 147.235 251.626 139.002 251.626 134.649C251.939 138.277 254.664 145.059 265.923 148.541Z" fill="#C8CDDA"/>
<path d="M251.552 132.733C251.552 132.733 251.672 127.291 251.672 127.347C251.672 127.403 236.046 124.277 233.287 103.104C231.912 92.5789 232.818 75.3859 233.995 61.3527C235.085 48.714 243.548 33.3764 255.751 35.0069L293.712 45.8916C297.409 46.3863 298.63 49.6585 298.467 53.5154L298.739 55.3258L295.577 115.698L294.486 125.818C293.93 137.298 284.257 149.431 272.327 149.746C260.811 150.33 251.4 145.439 251.552 132.733Z" fill="#C46845"/>
<path d="M240.865 75.0559C240.843 75.7016 241.103 76.3297 241.589 76.8063C242.076 77.2829 242.751 77.5704 243.47 77.6076C243.821 77.6402 244.175 77.6095 244.512 77.5173C244.849 77.4252 245.162 77.2735 245.433 77.0712C245.703 76.8688 245.926 76.62 246.088 76.3391C246.25 76.0584 246.347 75.7515 246.374 75.4365C246.397 74.7924 246.138 74.1658 245.654 73.6894C245.169 73.2132 244.498 72.9245 243.78 72.8847C243.429 72.8521 243.074 72.8828 242.737 72.9748C242.399 73.0668 242.085 73.2184 241.814 73.4206C241.542 73.6229 241.318 73.8717 241.155 74.1524C240.992 74.4332 240.894 74.7404 240.865 75.0559Z" fill="#36383F"/>
<path d="M237.252 71.5974C237.587 72.0563 239.719 70.1637 242.704 70.2783C245.689 70.3931 247.845 72.3 248.167 71.8554C248.341 71.6547 248.006 70.8375 247.015 69.9343C245.741 68.7895 244.217 68.1589 242.647 68.1277C241.098 68.0725 239.574 68.6351 238.301 69.7336C237.367 70.5794 237.033 71.3967 237.252 71.5974Z" fill="#36383F"/>
<path d="M264.789 76.4267C265.095 76.7709 267.063 75.3514 269.803 75.4482C272.543 75.545 274.511 76.9536 274.818 76.6203C274.966 76.4805 274.659 75.8568 273.76 75.1901C272.592 74.329 271.193 73.8524 269.75 73.8244C268.324 73.7883 266.924 74.2139 265.752 75.0395C264.937 75.6525 264.63 76.2547 264.789 76.4267Z" fill="#36383F"/>
<path d="M254.565 93.6765C254.565 93.5054 252.795 93.1405 249.899 92.6956C249.164 92.5929 248.474 92.4333 248.362 91.9086C248.316 91.1275 248.508 90.351 248.907 89.6846L251.213 83.9818C254.421 75.8727 256.782 69.1548 256.448 69.0751C256.113 68.9952 253.262 75.405 250.056 83.5143C249.313 85.514 248.57 87.4149 247.828 89.217C247.342 90.112 247.18 91.1542 247.371 92.1596C247.474 92.4286 247.634 92.6706 247.841 92.8679C248.047 93.0653 248.293 93.213 248.562 93.3001C248.968 93.4216 249.388 93.4907 249.81 93.5054C252.739 93.7791 254.555 93.8361 254.565 93.6765Z" fill="#36383F"/>
<path d="M252.007 127.639C261.591 128.047 271.09 125.525 279.447 120.353C279.447 120.353 272.229 135.975 251.887 133.351L252.007 127.639Z" fill="#8C411E"/>
<path d="M264.768 69.2468C265.083 69.8772 267.853 69.4296 271.166 69.5848C274.479 69.7401 277.185 70.3703 277.575 69.7675C277.748 69.4844 277.25 68.8998 276.124 68.3335C274.647 67.6384 272.997 67.2473 271.307 67.1918C269.614 67.1031 267.921 67.3601 266.371 67.9407C265.19 68.4157 264.627 68.9455 264.768 69.2468Z" fill="#36383F"/>
<path d="M238.182 62.1309C238.727 62.7271 240.962 62.1309 243.616 62.2104C246.27 62.2898 248.525 62.7072 249.06 62.1111C249.291 61.813 248.955 61.2268 248.011 60.6505C246.671 59.9467 245.164 59.5775 243.631 59.5775C242.1 59.5775 240.592 59.9467 239.252 60.6505C238.266 61.2467 237.941 61.8427 238.182 62.1309Z" fill="#36383F"/>
<path d="M256.164 99.4571C256.593 98.8858 257.134 98.4204 257.749 98.0933C258.365 97.7661 259.04 97.5853 259.727 97.5632C260.509 97.5891 261.276 97.7876 261.982 98.1459C262.687 98.5042 263.313 99.0145 263.821 99.6442L263.898 99.7144L264.041 99.878C264.439 100.327 264.687 100.902 264.748 101.515C264.756 102.202 264.606 102.881 264.309 103.492C264.013 104.104 263.58 104.629 263.048 105.022C262.226 105.686 261.231 106.064 260.198 106.106C259.165 106.148 258.147 105.851 257.278 105.256C256.434 104.618 255.85 103.665 255.643 102.589C255.437 101.513 255.623 100.394 256.164 99.4571Z" fill="#8C411E"/>
<path d="M263.671 96.6134C263.504 96.6134 263.372 97.3073 262.916 98.2904C262.331 99.5518 261.413 100.615 260.271 101.355C259.104 102.053 257.77 102.386 256.426 102.315C255.381 102.315 254.726 102.061 254.648 102.223C254.57 102.385 255.17 102.847 256.326 103.125C257.871 103.457 259.481 103.176 260.837 102.338C262.193 101.498 263.193 100.155 263.637 98.5795C263.96 97.3882 263.804 96.6134 263.671 96.6134Z" fill="#36383F"/>
<path d="M250.931 35.6506C251.041 36.7204 250.904 37.8025 250.527 38.8033C250.152 39.8041 249.549 40.6933 248.773 41.394C247.197 42.7716 245.494 43.9807 243.691 45.0034C238.296 48.5448 235.63 56.2857 233.106 62.4264C228.661 53.5162 235.491 41.9955 241.144 35.0149C242.109 33.7133 243.304 32.6189 244.662 31.7914C245.347 31.3844 246.111 31.1473 246.896 31.0981C247.682 31.049 248.468 31.189 249.194 31.5076" fill="#3B3F51"/>
<path d="M266.647 21.5971C262.396 21.5298 257.919 22.1126 254.448 24.6568C250.975 27.2122 248.899 32.2222 250.727 36.2235L251.041 39.0141C253.43 43.6767 259.206 45.0665 264.3 45.3578C264.93 45.394 265.567 45.4229 266.207 45.4521C270.74 45.6586 275.427 45.8722 279.009 48.6418C282.416 51.2645 284.038 55.6803 285.498 59.8497C287.487 65.5636 286.58 69.8546 285.85 73.3095C284.872 77.9327 284.211 81.0585 291.23 84.0924C296.384 86.3237 293.565 93.7542 290.059 102.996C288.775 106.381 287.398 110.01 286.288 113.715L286.212 113.614C283.67 124.499 284.723 130.242 286.506 134.197C290.61 132.365 295.055 131.364 299.697 131.364C306.187 131.364 312.292 133.322 317.617 136.769C317.387 136.083 317.16 135.396 316.939 134.707C309.899 112.582 312.147 101.21 314.235 90.6433C315.673 83.3691 317.035 76.4764 315.241 66.7201C313.435 56.902 303.906 42.5784 297.417 35.1362C289.749 26.3044 278.111 21.7652 266.647 21.5971Z" fill="#3B3F51"/>
<path d="M325.968 154.639C298.947 157.744 287.814 139.769 285.625 130.394L298.76 118.757L309.08 88.6922L298.76 37.2916C316.585 61.5371 321.277 64.4466 320.338 101.3C319.588 130.783 337.539 132.334 346.608 129.425C350.986 136.537 352.988 151.536 325.968 154.639Z" fill="#3B3F51"/>
<path d="M272.49 16.9251C266.86 21.7744 264.983 16.9251 259.355 17.8951C256.227 18.8649 250.723 22.7442 253.726 30.5028C253.875 30.8892 254.012 31.2468 254.139 31.5771C254 31.5413 253.861 31.5064 253.726 31.4726C254.915 34.2371 256.555 37.8773 254.139 31.5771C263.357 33.9294 281.729 40.3173 284.686 47.9596C287.688 55.7181 302.199 73.1749 309.08 80.9335L297.821 140.092L323.152 152.7L369.124 178.886C386.95 175.006 383.197 158.519 374.754 153.67C366.31 148.821 370.063 143.972 371.939 143.002C373.44 142.227 375.692 139.446 376.63 138.153C384.136 124.575 372.877 116.817 369.124 114.877C366.122 113.325 367.873 109.058 369.124 107.119C370.063 105.502 371.751 100.718 371.001 94.5109C370.063 86.7524 364.433 80.9335 356.928 76.0844C349.422 71.2353 354.113 70.2655 353.175 61.537C352.237 52.8087 346.608 49.8992 338.164 47.9596C329.72 46.0199 335.349 42.1407 329.72 33.4123C325.217 26.4295 314.083 24.3606 309.08 25.6537C306.578 26.3002 303.813 25.7913 299.697 19.8352C295.006 13.0463 276.242 11.1061 272.49 16.9251Z" fill="#3B3F51"/>
<path d="M295.007 46.0195C292.505 46.3428 286.563 48.1532 282.81 52.8084C285.312 52.4851 291.254 50.6747 295.007 46.0195Z" fill="#C8CDDA"/>
<path d="M286.563 44.0792C285.024 44.3563 281.367 45.9081 279.058 49.8982C280.598 49.6211 284.254 48.0695 286.563 44.0792Z" fill="#C8CDDA"/>
<path d="M292.241 86.3443C292.553 81.8465 297.295 78.9679 300.98 81.2955C303.006 82.5774 304.514 85.0961 304.213 89.8637C303.448 102.559 291.39 99.1404 291.39 98.7693C291.39 98.3982 291.928 91.6179 292.241 86.3443Z" fill="#C46845"/>
<path d="M295.08 93.6114C295.08 93.6114 295.277 93.7706 295.607 93.9509C296.078 94.1941 296.621 94.2434 297.126 94.0889C298.386 93.6963 299.544 91.7546 299.73 89.6008C299.825 88.5761 299.694 87.5426 299.347 86.5769C299.262 86.1945 299.087 85.8396 298.836 85.5435C298.586 85.2475 298.268 85.0193 297.911 84.8793C297.683 84.8008 297.435 84.8066 297.211 84.8957C296.986 84.9848 296.799 85.1517 296.682 85.3673C296.506 85.6962 296.568 85.9403 296.496 85.9615C296.423 85.9827 296.258 85.7387 296.382 85.2506C296.466 84.9579 296.644 84.7032 296.888 84.5291C297.227 84.3026 297.638 84.219 298.035 84.2957C298.507 84.4248 298.939 84.6759 299.29 85.0252C299.641 85.3743 299.899 85.8099 300.039 86.2904C300.476 87.3588 300.65 88.5213 300.546 89.6751C300.318 92.0836 298.975 94.2693 297.26 94.6618C296.942 94.7332 296.611 94.7312 296.293 94.656C295.975 94.5808 295.678 94.4342 295.421 94.2268C295.08 93.9086 295.029 93.6327 295.08 93.6114Z" fill="#8C411E"/>
<path d="M290.507 102.504C290.507 102.504 290.423 102.74 290.507 103.17C290.676 103.777 291.047 104.305 291.556 104.662C291.944 104.923 292.386 105.087 292.847 105.141C293.308 105.195 293.775 105.138 294.211 104.974C294.743 104.776 295.227 104.464 295.631 104.058C296.034 103.653 296.348 103.163 296.55 102.622C296.903 101.656 296.991 100.609 296.806 99.5954C296.621 98.5815 296.17 97.6382 295.501 96.8668C295.25 96.5309 294.934 96.251 294.573 96.0442C294.212 95.8375 293.814 95.7081 293.403 95.6642C294.087 96.0334 294.699 96.5284 295.207 97.1245C295.721 97.792 296.08 98.5704 296.257 99.4009C296.469 100.404 296.392 101.448 296.036 102.407C295.867 102.879 295.602 103.309 295.258 103.668C294.914 104.027 294.5 104.307 294.043 104.49C293.676 104.642 293.281 104.707 292.886 104.679C292.492 104.651 292.109 104.532 291.766 104.329C291.305 104.038 290.939 103.611 290.717 103.105C290.58 102.74 290.559 102.504 290.507 102.504Z" fill="#41D679"/>
<path d="M345.609 174.924L343.313 163.509L364.436 153.591L364.983 155.449C368.001 165.794 383.045 215.655 383.964 219.381C387.353 233.217 386.599 260.596 381.241 265.719C376.955 269.817 368.722 272.833 363.277 272.214C357.832 271.595 344.732 254.531 344.732 254.531L329.055 206.289L345.609 174.924Z" fill="#C46845"/>
<path d="M344.672 167.836C344.675 168.132 344.71 168.426 344.775 168.714C344.89 169.345 345.027 170.179 345.21 171.238C345.612 173.49 346.196 176.609 346.895 180.461C347.594 184.313 348.442 188.998 349.187 194.178C349.998 199.775 350.442 205.417 350.516 211.071C350.567 216.735 349.917 222.385 348.579 227.896C347.33 232.952 346.184 237.615 346.288 241.636C346.269 244.791 347.091 247.898 348.671 250.646C349.238 251.659 349.992 252.56 350.894 253.303C347.978 250.092 346.475 245.877 346.712 241.58C346.643 237.638 347.857 233.043 349.107 227.975C350.476 222.427 351.146 216.734 351.1 211.026C351.033 205.337 350.57 199.659 349.714 194.032C348.969 188.84 348.087 184.2 347.319 180.314C346.551 176.43 345.898 173.354 345.451 171.125C345.222 170.077 345.039 169.255 344.912 168.624C344.847 168.357 344.767 168.095 344.672 167.836Z" fill="#8C411E"/>
<path d="M350.36 204.101L327.408 216.578L326.905 187.613L335.349 172.096L344.731 170.157C347.733 177.14 349.735 195.695 350.36 204.101Z" fill="white"/>
<path d="M327.408 216.578C330.41 211.922 344.106 205.717 350.36 203.131V205.071L327.408 216.578Z" fill="#C8CDDA"/>
<g opacity="0.3">
<path d="M332.279 180.674C335.236 184.784 335.573 190.325 334.355 195.237C333.137 200.149 329.983 212.178 327.408 216.578C327.06 212.214 327.965 200.194 328.974 195.935C330.192 190.837 332.372 185.878 332.36 180.628" fill="#36383F"/>
</g>
<path d="M323.551 144.379L327.59 139.741V134.229L331.781 127.978L340.14 129.367L342.7 129.591L340.972 116.909C340.013 113.665 338.755 110.524 337.213 107.532C334.233 101.347 339.028 98.5128 339.028 98.5128L347.992 114.78L350.973 125.591L352.247 116.774C352.247 116.774 350.735 108.193 350.951 103.778C351.167 99.3644 355.433 100.003 355.433 100.003L358.846 119.418V129.132L361.816 123.395C361.816 123.395 362.454 118.533 362.896 114.119C363.339 109.705 366.72 111.027 366.72 111.027V125.379L362.896 138.621C362.896 138.621 364.878 156.272 365.299 156.933L345.39 171.353C345.39 171.353 341.825 167.324 340.993 167.088C340.162 166.853 329.502 158.698 329.502 158.698L322.061 150.53C322.061 150.53 320.786 149.656 320.786 148.771C320.786 147.886 323.551 144.379 323.551 144.379ZM333.83 150.53L338.013 147.684L340.356 141.724L338.617 138.464L338.013 137.344L337.235 136.784L334.395 137.344C334.395 137.344 332.545 142.513 333.188 143.824C333.382 145.808 330.971 147.505 330.971 147.505L333.83 150.53Z" fill="#C46845"/>
<path d="M337.322 137.39C337.322 137.457 337.689 137.501 338.24 137.312C338.96 137.042 339.596 136.558 340.075 135.915C340.564 135.285 340.876 134.515 340.973 133.697C341.034 133.077 340.973 132.688 340.871 132.7C340.704 133.751 340.29 134.736 339.668 135.561C339.046 136.385 338.238 137.02 337.322 137.401V137.39Z" fill="#8C411E"/>
<path d="M326.261 148.844C326.371 146.623 326.24 144.399 325.869 142.196C325.413 143.274 325.274 144.418 325.462 145.542C325.396 146.676 325.669 147.804 326.261 148.844Z" fill="#8C411E"/>
<path d="M332.565 156.44C332.565 156.44 333.045 156.102 333.583 155.298C334.321 154.225 334.664 152.885 334.544 151.545C334.487 151.136 334.327 150.751 334.083 150.436C333.862 150.172 333.631 149.928 333.41 149.706C333.018 149.33 332.607 148.977 332.18 148.65C331.45 148.078 330.931 147.825 330.893 147.909C331.225 148.288 331.582 148.642 331.959 148.967C332.296 149.284 332.68 149.664 333.093 150.109C333.295 150.33 333.506 150.573 333.708 150.827C333.889 151.071 334.009 151.362 334.054 151.673C334.13 152.324 334.068 152.987 333.871 153.607C333.729 154.138 333.525 154.645 333.266 155.119C332.843 155.901 332.497 156.387 332.565 156.44Z" fill="#8C411E"/>
<path d="M327.226 139.347C327.152 141.159 327.653 142.941 328.636 144.364C329.01 144.958 329.505 145.438 330.079 145.76C330.571 146.003 331.118 146.059 331.641 145.92C332.556 145.661 332.793 144.944 332.717 144.932C332.642 144.919 332.319 145.376 331.565 145.475C331.129 145.535 330.686 145.445 330.295 145.217C329.811 144.918 329.395 144.495 329.078 143.98C328.305 142.524 327.683 140.969 327.226 139.347Z" fill="#8C411E"/>
<path d="M332.819 143.146C332.954 143.146 333.282 141.254 333.947 138.938C334.205 137.935 334.4 136.918 334.531 135.893C334.61 135.1 334.531 134.6 334.531 134.6C334.531 134.6 334.351 135.067 334.171 135.828C333.912 136.916 333.675 137.818 333.427 138.807C332.707 141.135 332.628 143.146 332.819 143.146Z" fill="#8C411E"/>
<path d="M326.3 149.793C328.061 149.645 329.754 149.003 331.209 147.934C331.817 147.551 332.36 147.062 332.816 146.487C333.175 145.991 333.423 145.416 333.543 144.804C333.707 144.259 333.679 143.669 333.466 143.146C333.367 143.146 333.466 143.78 333.157 144.698C332.765 145.862 331.98 146.827 330.956 147.404C328.524 149.028 326.245 149.592 326.3 149.793Z" fill="#8C411E"/>
<path d="M343.752 154.54C345.019 152.414 346.582 150.478 348.392 148.793C350.334 147.248 352.483 145.986 354.776 145.044C354.039 145.094 353.317 145.283 352.648 145.6C349.289 146.936 346.474 149.366 344.657 152.501C344.227 153.115 343.92 153.808 343.752 154.54Z" fill="#8C411E"/>
<path d="M351.103 133.713C351.103 133.912 352.619 134.069 354.377 134.847C356.134 135.625 357.408 136.64 357.534 136.482C356.701 135.45 355.693 134.666 354.586 134.187C353.478 133.708 352.299 133.545 351.135 133.713H351.103Z" fill="#8C411E"/>
<path d="M216.802 216.945C217.055 218.594 217.899 263.258 215.311 267.313C211.244 273.751 198.133 285.273 189.976 282.121C176.744 277.005 173.752 248.166 173.993 253.52L184.299 160.459L204.002 161.429L205.878 193.433V199.252C206.279 203.052 213.329 206.335 214.423 209.988L216.802 216.945Z" fill="#C46845"/>
<path d="M204.383 162.082C204.383 162.082 212.459 153.857 212.459 152.033C212.459 150.209 215.618 149.19 215.618 149.19L220.745 146.561C220.745 146.561 224.045 143.311 223.298 141.487C222.873 140.428 222.092 139.564 221.097 139.051C221.097 139.051 220.843 134.588 217.62 133.387C217.62 133.387 220.646 129.988 217.62 127.507C214.594 125.027 213.868 126.08 213.868 126.08C213.868 126.08 214.198 123.441 212.426 123.248C210.654 123.055 197.979 119.793 197.979 119.793C196.163 120.732 194.465 121.892 192.918 123.248C191.344 124.868 190.552 125.876 190.552 125.876C189.162 124.054 188.093 121.995 187.394 119.793C186.613 116.745 185.424 107.615 176.556 108.023V110.288C178.3 112.994 179.507 116.028 180.11 119.215C181.287 124.879 183.411 137.465 183.411 137.465L184.071 162.138L204.383 162.082Z" fill="#C46845"/>
<path d="M214.169 251.622C214.281 251.322 214.361 251.016 214.408 250.706C214.528 250.096 214.752 249.215 214.872 248.051C215.314 244.78 215.378 241.486 215.066 238.206C214.59 233.345 213.726 228.51 212.48 223.729C211.179 218.326 209.415 212.426 208.099 206.187C205.528 193.676 205.199 182.181 204.781 173.886C204.586 169.784 204.422 166.438 204.317 164.065V162.126C204.319 161.815 204.309 162.037 204.227 161.732C204.018 162.126 204.205 161.814 204.227 162.126C204.001 162.398 204.018 162.945 204.018 164.065C204.018 166.449 204.138 169.794 204.227 173.897C204.328 184.732 205.378 195.548 207.367 206.278C208.697 212.551 210.491 218.439 211.852 223.83C213.124 228.587 214.037 233.394 214.587 238.229C214.925 241.49 214.925 244.767 214.587 248.028C214.513 249.159 214.333 250.085 214.259 250.696C214.192 251.001 214.162 251.311 214.169 251.622Z" fill="#8C411E"/>
<path d="M197.685 124.414C197.685 124.511 198.561 124.484 199.961 124.719C201.361 124.954 203.307 125.203 205.429 125.452C208.039 125.891 210.671 126.089 213.303 126.046C210.743 125.384 208.148 124.964 205.538 124.788C203.35 124.539 201.438 124.359 200.07 124.262C199.277 124.076 198.461 124.128 197.685 124.414Z" fill="#8C411E"/>
<path d="M201.358 134.582C202.129 134.619 202.902 134.599 203.666 134.523C205.074 134.456 206.993 134.431 209.211 134.389C211.067 134.377 212.92 134.274 214.757 134.079C215.523 134.029 216.273 133.884 216.976 133.652C216.207 133.64 215.439 133.68 214.68 133.768C213.271 133.86 211.353 133.92 209.134 133.953C206.916 133.986 204.986 134.071 203.588 134.213C202.825 134.251 202.074 134.376 201.358 134.582Z" fill="#8C411E"/>
<path d="M205.034 142.196C205.772 142.2 206.507 142.118 207.225 141.956C208.568 141.745 210.408 141.42 212.445 140.997C214.481 140.575 216.31 140.23 217.613 139.933C218.342 139.818 219.054 139.621 219.732 139.347C218.99 139.344 218.251 139.424 217.531 139.588C216.197 139.799 214.347 140.124 212.362 140.546C210.377 140.968 208.506 141.313 207.194 141.62C206.451 141.729 205.725 141.922 205.034 142.196Z" fill="#8C411E"/>
<path d="M236.14 367.378L231.677 289.863L329.721 287.505C333.335 296.674 336.797 333.863 338.944 357.242C312.506 362.344 276.695 365.987 236.14 367.378Z" fill="#3B3F51"/>
<path d="M307.203 293.323C307.954 312.72 323.778 315.63 331.597 314.66C328.782 315.63 321.464 316.406 314.709 311.75C307.954 307.095 306.891 297.526 307.203 293.323Z" fill="#4C85BA"/>
<path fill-rule="evenodd" clip-rule="evenodd" d="M333.796 356.33L330.043 317.538L329.396 317.601L333.149 356.394C333.166 356.574 333.325 356.705 333.503 356.688C333.682 356.67 333.814 356.511 333.796 356.33Z" fill="#4C85BA"/>
<path d="M211.547 224.68C211.861 224.041 212.048 223.344 212.098 222.629C212.294 220.904 212.092 219.156 211.51 217.527C210.927 215.899 209.979 214.436 208.746 213.257C208.259 212.747 207.677 212.343 207.037 212.069C207.037 212.145 207.643 212.582 208.516 213.504C209.631 214.71 210.497 216.138 211.061 217.701C211.619 219.267 211.857 220.936 211.759 222.601C211.686 223.873 211.428 224.652 211.547 224.68Z" fill="#FAFAFA"/>
<path d="M210.327 229.524C210.455 229.524 210.675 229.077 210.813 228.45C210.952 227.823 210.96 227.301 210.813 227.273C210.666 227.244 210.474 227.718 210.327 228.346C210.18 228.972 210.198 229.494 210.327 229.524Z" fill="#FAFAFA"/>
<path d="M83.2354 210.81L106.78 207.077L107.871 214.426L84.3253 218.159L83.2354 210.81Z" fill="#FAFAFA"/>
<path d="M78.6191 360.415V197.763H258.082V366.382C239.603 367.432 219.844 368 199.311 368C153.294 368 111.165 365.146 78.6191 360.415Z" fill="#41D679"/>
<path d="M78.6191 360.415V197.763H258.082V366.382C239.603 367.432 219.844 368 199.311 368C153.294 368 111.165 365.146 78.6191 360.415Z" fill="#FFA300"/>
<path d="M78.2822 360.366V197.764C78.2822 197.514 78.4303 197.312 78.6179 197.312H258.08C258.269 197.312 258.417 197.514 258.417 197.764V366.364C258.193 366.377 257.968 366.389 257.744 366.402V198.215H78.9548V360.464C78.7298 360.431 78.506 360.399 78.2822 360.366Z" fill="#41D679"/>
<path d="M78.2822 360.366V197.764C78.2822 197.514 78.4326 197.312 78.6179 197.312H258.08C258.267 197.312 258.417 197.514 258.417 197.764V366.364C258.193 366.377 257.968 366.389 257.744 366.402V198.215H78.9548V360.464C78.7298 360.431 78.506 360.399 78.2822 360.366Z" fill="#3B3F51"/>
<path d="M130.374 365.748V197.763H258.081V366.382C239.602 367.432 219.843 368 199.31 368C174.961 368 151.702 367.201 130.374 365.748Z" fill="#FFCE05"/>
<path d="M130.036 365.726V197.764C130.036 197.514 130.188 197.312 130.373 197.312H258.08C258.267 197.312 258.417 197.514 258.417 197.764V366.364C258.193 366.377 257.968 366.389 257.744 366.402V198.215H130.709V365.771C130.485 365.756 130.261 365.741 130.036 365.726Z" fill="#3B3F51"/>
<path d="M180.785 197.764H208.342V245.615H180.785V197.764Z" fill="#FAFAFA"/>
<path fill-rule="evenodd" clip-rule="evenodd" d="M208.678 197.764C208.678 197.514 208.527 197.312 208.342 197.312H180.784C180.599 197.312 180.448 197.514 180.448 197.764V245.615C180.448 245.864 180.599 246.066 180.784 246.066H208.342C208.527 246.066 208.678 245.864 208.678 245.615V197.764ZM208.005 198.215V245.163H181.12V198.215H208.005Z" fill="#3B3F51"/>
<path d="M167.412 286.535C172.075 286.535 175.855 282.627 175.855 277.807C175.855 272.986 172.075 269.078 167.412 269.078C162.749 269.078 158.968 272.986 158.968 277.807C158.968 282.627 162.749 286.535 167.412 286.535Z" fill="#36383F"/>
<path d="M223.704 286.535C228.367 286.535 232.147 282.627 232.147 277.807C232.147 272.986 228.367 269.078 223.704 269.078C219.041 269.078 215.26 272.986 215.26 277.807C215.26 282.627 219.041 286.535 223.704 286.535Z" fill="#36383F"/>
<path d="M207.755 280.717C207.755 284.318 206.469 287.771 204.182 290.317C201.895 292.864 198.792 294.294 195.558 294.294C192.323 294.294 189.221 292.864 186.934 290.317C184.646 287.771 183.361 284.318 183.361 280.717H207.755Z" fill="#36383F"/>
<path d="M204.001 288.822C202.873 290.53 201.444 291.909 199.82 292.856C198.196 293.803 196.418 294.294 194.619 294.294C192.818 294.294 191.04 293.803 189.416 292.856C187.794 291.909 186.365 290.53 185.236 288.822C187.849 286.095 191.177 284.596 194.619 284.596C198.06 284.596 201.388 286.095 204.001 288.822Z" fill="#E55420"/>
<path opacity="0.4" d="M163.66 298.173C170.395 298.173 175.856 296.002 175.856 293.324C175.856 290.646 170.395 288.475 163.66 288.475C156.924 288.475 151.463 290.646 151.463 293.324C151.463 296.002 156.924 298.173 163.66 298.173Z" fill="#E55420"/>
<path opacity="0.4" d="M226.518 298.173C232.736 298.173 237.777 296.002 237.777 293.324C237.777 290.646 232.736 288.475 226.518 288.475C220.301 288.475 215.259 290.646 215.259 293.324C215.259 296.002 220.301 298.173 226.518 298.173Z" fill="#E55420"/>
<path d="M291.986 85.9271C293.692 84.2212 294.945 75.8562 294.257 75.1215C294.246 75.8441 291.006 84.262 286.945 86.2747C281.869 88.7907 284.338 91.8693 286.841 92.7796C288.844 93.5079 288.464 96.2776 288.023 97.5713C288.881 96.4293 289.933 93.6132 287.281 91.4858C283.967 88.8265 289.854 88.0596 291.986 85.9271Z" fill="#3B3F51"/>
<path fill-rule="evenodd" clip-rule="evenodd" d="M207.259 58.7806C209.42 52.0812 215.978 50.0512 220.021 49.4083L219.878 48.4498C215.789 49.1 208.713 51.208 206.37 58.474C205.206 62.081 205.456 65.9779 206.217 69.3568C206.979 72.7381 208.265 75.6458 209.227 77.3033L210.031 76.8045C209.117 75.2293 207.87 72.415 207.131 69.1368C206.392 65.8563 206.171 62.1563 207.259 58.7806Z" fill="#3B3F51"/>
<path fill-rule="evenodd" clip-rule="evenodd" d="M368.869 113.685C368.161 112.954 367.716 111.881 367.716 110.028H366.778C366.778 112.053 367.271 113.405 368.206 114.371C369.114 115.31 370.387 115.824 371.79 116.307C373.547 116.912 376.733 119.248 378.436 122.849C380.114 126.395 380.375 131.212 376.254 136.892L377.005 137.473C381.327 131.515 381.119 126.311 379.279 122.422C377.464 118.587 374.082 116.074 372.087 115.387C370.674 114.9 369.603 114.444 368.869 113.685Z" fill="#3B3F51"/>
<path d="M93.4356 128.089C93.4286 123.306 94.3867 118.567 96.2541 114.145C98.1226 109.723 100.865 105.704 104.324 102.317C107.783 98.9298 111.892 96.2412 116.415 94.4048C120.938 92.5685 125.787 91.6202 130.686 91.6142C135.584 91.6082 140.437 92.5445 144.966 94.3697C149.494 96.1949 153.61 98.8733 157.078 102.252C160.547 105.63 163.299 109.643 165.18 114.061C167.06 118.478 168.031 123.214 168.037 127.998C168.044 134.496 166.271 140.876 162.901 146.478L162.793 146.608C161.377 148.964 159.571 150.643 157.765 153.113L136.11 181.138C135.028 182.529 133.427 183.443 131.655 183.681C129.884 183.919 128.088 183.461 126.663 182.406C126.173 182.042 125.736 181.616 125.363 181.138L104.057 153.515C102.112 151.276 100.293 148.934 98.6099 146.502C95.2342 140.925 93.4472 134.568 93.4356 128.089ZM130.787 143.941C135.137 143.93 139.304 142.237 142.378 139.232C145.45 136.227 147.179 132.154 147.183 127.907C147.183 123.652 145.452 119.572 142.372 116.564C139.291 113.556 135.112 111.865 130.756 111.865C126.399 111.865 122.219 113.555 119.138 116.563C116.056 119.572 114.323 123.652 114.322 127.907C114.323 132.162 116.055 136.244 119.137 139.253C122.219 142.263 126.398 143.954 130.756 143.956L130.787 143.941Z" fill="#F2F6F9"/>
<path d="M52.4724 236.604L57.091 230.842L45.88 222.997L55.3626 214.68L50.6072 209.107L42.0991 218.715L38.485 205.202L30.9089 207.978L36.8541 220.637L24.1582 218.797L24.1616 226.111L36.8336 226.621L33.1285 239.827L40.4792 241.204L42.1953 227.129L52.4724 236.604Z" fill="#FFCE05"/>
<path d="M419.88 164.142L424.721 162.087L420.296 153.333L429.056 151.325L427.933 146.198L419.353 149.351L421.613 139.615L415.913 138.783L415.407 148.775L408.032 143.296L405.58 147.901L413.386 152.535L406.621 159.587L410.786 162.955L416.59 154.68L419.88 164.142Z" fill="#FFCE05"/>
<path d="M55.1057 53.8247L58.2721 52.4805L55.3783 46.755L61.108 45.4417L60.3735 42.0884L54.7615 44.1504L56.2396 37.7823L52.5112 37.2386L52.1802 43.774L47.357 40.1902L45.7529 43.2024L50.8584 46.233L46.4341 50.8456L49.1582 53.0488L52.9543 47.6359L55.1057 53.8247Z" fill="white"/>
</g>
<defs>
<radialGradient id="paint0_radial_1019_7229" cx="0" cy="0" r="1" gradientUnits="userSpaceOnUse" gradientTransform="translate(130.893 132.039) rotate(103.474) scale(140.185 139.12)">
<stop stop-color="white"/>
<stop offset="1" stop-color="white" stop-opacity="0.1"/>
</radialGradient>
<radialGradient id="paint1_radial_1019_7229" cx="0" cy="0" r="1" gradientUnits="userSpaceOnUse" gradientTransform="translate(358.327 264.166) rotate(103.501) scale(87.2679 86.7614)">
<stop stop-color="#FFCE00"/>
<stop offset="0.0001" stop-color="white"/>
<stop offset="1" stop-color="white" stop-opacity="0.1"/>
</radialGradient>
<clipPath id="clip0_1019_7229">
<rect width="440" height="368" fill="white"/>
</clipPath>
</defs>
</svg>
