<svg viewBox="0 0 557 280" fill="none" xmlns="http://www.w3.org/2000/svg">
<path d="M477.171 267.067L427.849 212.685C427.555 212.364 427.198 212.109 426.801 211.937C426.404 211.765 425.976 211.679 425.544 211.685C425.113 211.691 424.687 211.789 424.295 211.973C423.903 212.157 423.553 212.422 423.268 212.751L375.112 268.089C374.695 268.58 374.138 268.927 373.519 269.081C372.899 269.235 372.248 269.189 371.655 268.948C371.063 268.708 370.559 268.285 370.214 267.74C369.868 267.194 369.699 266.553 369.729 265.905L372.657 191.965C372.671 191.527 372.595 191.091 372.434 190.684C372.273 190.278 372.03 189.91 371.721 189.604C371.412 189.299 371.043 189.062 370.639 188.91C370.235 188.758 369.804 188.694 369.374 188.721L296.806 193.289C296.17 193.335 295.535 193.178 294.991 192.84C294.446 192.502 294.019 192 293.768 191.403C293.517 190.806 293.456 190.145 293.592 189.511C293.729 188.877 294.056 188.302 294.529 187.867L347.951 137.706C348.269 137.408 348.522 137.046 348.694 136.642C348.866 136.239 348.953 135.803 348.95 135.363C348.946 134.924 348.852 134.489 348.673 134.089C348.494 133.689 348.234 133.331 347.911 133.039L293.508 84.0387C293.025 83.6148 292.684 83.0481 292.533 82.4178C292.381 81.7876 292.427 81.1251 292.663 80.5224C292.899 79.9197 293.314 79.407 293.85 79.0558C294.387 78.7046 295.017 78.5323 295.654 78.5628L368.334 81.5535C368.765 81.5682 369.194 81.4912 369.594 81.3273C369.993 81.1634 370.355 80.9162 370.655 80.6018C370.955 80.2873 371.188 79.9125 371.337 79.5014C371.486 79.0902 371.55 78.6516 371.523 78.2141L367.021 4.38792C366.976 3.74067 367.13 3.09509 367.462 2.54118C367.794 1.98727 368.288 1.55263 368.874 1.29775C369.461 1.04288 370.111 0.980483 370.734 1.11929C371.357 1.25811 371.922 1.59122 372.351 2.07217L421.666 56.4284C421.956 56.752 422.309 57.01 422.704 57.1854C423.098 57.3609 423.524 57.4499 423.954 57.4467C424.385 57.4435 424.81 57.3482 425.201 57.167C425.593 56.9857 425.943 56.7225 426.228 56.3946L474.41 1.05038C474.829 0.568891 475.384 0.231215 476 0.0834255C476.615 -0.0643637 477.26 -0.014952 477.847 0.224946C478.434 0.464843 478.933 0.883475 479.277 1.42343C479.621 1.96339 479.792 2.59826 479.767 3.24105L476.865 77.1741C476.85 77.6104 476.924 78.0452 477.083 78.4507C477.243 78.8562 477.483 79.2236 477.79 79.5293C478.096 79.8351 478.462 80.0727 478.863 80.2268C479.265 80.3809 479.694 80.4482 480.122 80.4245L552.715 75.8509C553.352 75.8046 553.986 75.9614 554.531 76.2994C555.075 76.6374 555.503 77.1398 555.753 77.7365C556.004 78.3333 556.065 78.9946 555.929 79.6285C555.793 80.2623 555.465 80.8372 554.993 81.2728L501.475 131.593C501.159 131.89 500.908 132.251 500.739 132.652C500.569 133.054 500.484 133.487 500.49 133.924C500.496 134.361 500.591 134.792 500.771 135.189C500.951 135.586 501.211 135.94 501.534 136.228L555.937 185.228C556.42 185.652 556.761 186.219 556.912 186.849C557.064 187.479 557.018 188.142 556.782 188.745C556.546 189.347 556.131 189.86 555.594 190.211C555.058 190.562 554.428 190.735 553.791 190.704L481.117 187.739C480.688 187.724 480.26 187.8 479.862 187.962C479.463 188.124 479.102 188.368 478.802 188.68C478.501 188.992 478.268 189.364 478.116 189.772C477.965 190.181 477.899 190.617 477.922 191.053L482.429 264.905C482.426 265.523 482.243 266.127 481.901 266.639C481.56 267.151 481.077 267.549 480.513 267.78C479.949 268.012 479.331 268.068 478.735 267.941C478.14 267.814 477.596 267.51 477.171 267.067Z" fill="url(#paint0_radial_203_5705)" fill-opacity="0.5"/>
<path d="M105.717 271.185L77.4905 240.179C77.3221 239.996 77.1177 239.851 76.8905 239.753C76.6633 239.655 76.4184 239.606 76.1714 239.609C75.9244 239.613 75.6809 239.669 75.4566 239.773C75.2323 239.878 75.0321 240.029 74.8688 240.217L47.3093 271.768C47.0709 272.048 46.7522 272.246 46.3976 272.333C46.0431 272.421 45.6703 272.395 45.3313 272.258C44.9922 272.121 44.7038 271.88 44.5062 271.569C44.3085 271.258 44.2115 270.892 44.2287 270.522L45.9044 228.366C45.9126 228.116 45.8692 227.867 45.777 227.636C45.6847 227.404 45.5457 227.194 45.3688 227.02C45.1918 226.846 44.981 226.711 44.7496 226.624C44.5183 226.537 44.2717 226.501 44.0255 226.516L2.49576 229.12C2.13166 229.147 1.7685 229.057 1.45688 228.865C1.14525 228.672 0.90067 228.385 0.757237 228.045C0.613804 227.705 0.578656 227.328 0.656685 226.967C0.734715 226.605 0.922019 226.277 1.19253 226.029L31.7655 197.43C31.9476 197.26 32.0926 197.053 32.1911 196.823C32.2895 196.593 32.3393 196.345 32.3371 196.094C32.3349 195.844 32.2809 195.596 32.1785 195.368C32.0761 195.139 31.9277 194.936 31.7427 194.769L0.608375 166.832C0.332011 166.59 0.136879 166.267 0.0501932 165.907C-0.0364921 165.548 -0.0104281 165.17 0.124752 164.827C0.259932 164.483 0.497496 164.191 0.804349 163.991C1.1112 163.79 1.47206 163.692 1.83665 163.71L43.4307 165.415C43.6772 165.423 43.9227 165.379 44.1514 165.286C44.3802 165.192 44.587 165.051 44.7589 164.872C44.9307 164.693 45.0636 164.479 45.1491 164.245C45.2347 164.01 45.2709 163.76 45.2554 163.511L42.6794 121.419C42.6533 121.05 42.7414 120.682 42.9315 120.366C43.1216 120.05 43.4042 119.802 43.7398 119.657C44.0755 119.512 44.4476 119.476 44.8041 119.555C45.1607 119.634 45.4841 119.824 45.7292 120.098L73.9518 151.09C74.1177 151.274 74.32 151.421 74.5457 151.521C74.7713 151.621 75.0152 151.672 75.2615 151.67C75.5078 151.668 75.7509 151.614 75.9751 151.511C76.1992 151.407 76.3994 151.257 76.5626 151.07L104.137 119.516C104.376 119.241 104.694 119.049 105.046 118.965C105.399 118.88 105.768 118.908 106.104 119.045C106.44 119.182 106.725 119.421 106.922 119.729C107.119 120.036 107.217 120.398 107.203 120.765L105.541 162.918C105.533 163.167 105.576 163.414 105.667 163.646C105.758 163.877 105.896 164.086 106.071 164.261C106.246 164.435 106.456 164.57 106.685 164.658C106.915 164.746 107.161 164.784 107.406 164.771L148.95 162.163C149.314 162.137 149.677 162.226 149.989 162.419C150.301 162.612 150.545 162.898 150.689 163.238C150.832 163.579 150.867 163.956 150.789 164.317C150.711 164.679 150.524 165.006 150.253 165.255L119.626 193.945C119.445 194.114 119.301 194.32 119.204 194.549C119.107 194.777 119.059 195.025 119.062 195.274C119.065 195.523 119.12 195.769 119.223 195.995C119.326 196.221 119.475 196.423 119.659 196.587L150.794 224.525C151.07 224.767 151.265 225.09 151.352 225.449C151.439 225.808 151.412 226.186 151.277 226.53C151.142 226.873 150.905 227.166 150.598 227.366C150.291 227.566 149.93 227.664 149.565 227.647L107.975 225.956C107.729 225.948 107.485 225.991 107.257 226.083C107.029 226.176 106.822 226.315 106.65 226.493C106.478 226.67 106.344 226.883 106.258 227.115C106.171 227.348 106.133 227.597 106.147 227.846L108.726 269.952C108.724 270.305 108.619 270.649 108.424 270.941C108.229 271.233 107.952 271.46 107.63 271.592C107.307 271.724 106.953 271.756 106.612 271.684C106.271 271.611 105.96 271.438 105.717 271.185Z" fill="url(#paint1_radial_203_5705)" fill-opacity="0.5"/>
<path d="M107.902 59.155H397.766C403.2 59.155 407.613 63.5983 407.613 69.0882V255.303C407.613 260.793 403.2 265.236 397.766 265.236H107.902C102.467 265.236 98.0547 260.793 98.0547 255.303V69.0882C98.0547 63.5983 102.467 59.155 107.902 59.155Z" fill="#2BC866" stroke="#3B3F51"/>
<path d="M85.918 252.86H421.382V257.738C421.382 260.987 420.102 264.102 417.825 266.398C415.548 268.694 412.46 269.984 409.242 269.984H98.0587C94.8401 269.984 91.7525 268.694 89.4754 266.398C87.1981 264.102 85.918 260.987 85.918 257.738V252.86Z" fill="#1A9047" stroke="#36383F"/>
<path d="M398.909 66.8826H105.892V241.762H398.909V66.8826Z" fill="#107E3A"/>
<path d="M222.222 250.419L226.398 257.115H285.149L289.026 250.419H222.222Z" fill="#36383F"/>
<path d="M391.154 72.8046H114.25C112.968 72.8046 111.928 73.8529 111.928 75.1461V238.862C111.928 240.155 112.968 241.203 114.25 241.203H391.154C392.437 241.203 393.476 240.155 393.476 238.862V75.1461C393.476 73.8529 392.437 72.8046 391.154 72.8046Z" fill="#F2F6F9"/>
<path d="M405.442 250.405C405.442 250.52 336.515 250.606 251.509 250.606C166.504 250.606 97.5547 250.52 97.5547 250.405C97.5547 250.291 166.44 250.205 251.509 250.205C336.579 250.205 405.442 250.305 405.442 250.405Z" fill="#36383F"/>
<path d="M429.04 199.098L416.002 219.32L398.994 212.016L389.336 206.925L377.519 208.235L394.207 218.604L410.491 234.028C411.539 235.261 412.866 236.22 414.36 236.826C415.854 237.432 417.471 237.665 419.074 237.507C420.676 237.349 422.217 236.804 423.566 235.918C424.916 235.032 426.033 233.831 426.825 232.417L440.069 208.672L429.04 199.098Z" fill="#DE9755"/>
<path d="M396.217 211.229C391.456 209.509 386.56 208.196 381.581 207.304C381.276 207.627 381.681 208.737 382.05 209.002C382.472 209.322 382.956 209.548 383.47 209.667C383.961 209.723 384.441 209.855 384.89 210.061C385.517 210.479 386.011 211.071 386.311 211.766C387.625 213.914 390.721 215.346 393.753 215.138" fill="#DE9755"/>
<path d="M393.746 215.117C393.644 215.145 393.539 215.159 393.434 215.16C393.133 215.179 392.832 215.179 392.532 215.16C391.415 215.106 390.318 214.846 389.294 214.393C388.581 214.083 387.919 213.668 387.326 213.162C387 212.873 386.7 212.554 386.432 212.209C386.162 211.844 385.942 211.429 385.722 211.049C385.507 210.658 385.18 210.341 384.784 210.14C384.327 209.965 383.85 209.85 383.364 209.796C382.847 209.657 382.364 209.413 381.943 209.08C381.73 208.883 381.567 208.638 381.468 208.364C381.349 208.092 381.295 207.795 381.311 207.498C381.329 207.369 381.38 207.248 381.461 207.147L381.525 207.075H381.624C385.161 207.677 388.648 208.546 392.056 209.675C393.363 210.097 394.407 210.462 395.124 210.727C395.505 210.847 395.875 210.998 396.232 211.178C395.84 211.106 395.455 211.001 395.081 210.863L391.978 209.918C388.549 208.884 385.057 208.073 381.525 207.491L381.681 207.433C381.659 207.479 381.642 207.527 381.631 207.576C381.629 208.048 381.804 208.504 382.121 208.851C382.509 209.144 382.951 209.356 383.421 209.474C383.922 209.541 384.414 209.671 384.884 209.861C385.338 210.094 385.713 210.458 385.963 210.906C386.68 212.372 387.887 213.536 389.372 214.193C390.363 214.655 391.424 214.946 392.511 215.052C393.313 215.117 393.746 215.117 393.746 215.117Z" fill="#9F4F36"/>
<path d="M409.22 218.067C408.692 217.623 408.194 217.145 407.729 216.635C406.82 215.732 405.535 214.486 404.029 213.291C402.524 212.095 401.068 211.056 400.002 210.355C399.408 210.005 398.837 209.617 398.291 209.195C398.941 209.434 399.56 209.749 400.137 210.133C403.022 211.844 405.642 213.971 407.914 216.449C408.408 216.936 408.847 217.479 409.22 218.067Z" fill="#FAFAFA"/>
<path d="M327.484 265.222L312.13 273.243L312.104 273.257L312.086 273.278L309.55 276.207L309.55 276.207C309.195 276.62 308.763 276.958 308.278 277.202C307.793 277.445 307.265 277.59 306.725 277.627C306.184 277.664 305.642 277.594 305.129 277.419C304.615 277.244 304.141 276.968 303.734 276.608L303.734 276.608L282.112 257.589C282.115 257.578 282.119 257.566 282.124 257.553C282.151 257.473 282.193 257.358 282.25 257.222C282.364 256.949 282.537 256.595 282.776 256.265C283.015 255.934 283.313 255.635 283.673 255.461C284.03 255.289 284.456 255.233 284.967 255.402C286.067 255.764 290.934 257.258 295.523 258.66C297.818 259.362 300.044 260.04 301.697 260.544C302.524 260.795 303.207 261.003 303.683 261.148L304.235 261.316L304.379 261.36L304.417 261.371L304.426 261.374L304.428 261.375L304.429 261.375C304.429 261.375 304.429 261.375 304.473 261.232L304.429 261.375L304.494 261.395L304.552 261.359L318.867 252.442L327.484 265.222Z" fill="#E1F1E7" stroke="#36383F" stroke-width="0.3"/>
<path d="M303.982 260.874C303.741 260.874 303.501 260.835 303.272 260.759C302.839 260.666 302.214 260.508 301.44 260.301C299.899 259.893 297.783 259.284 295.468 258.539C293.152 257.795 291.079 257.05 289.588 256.477C288.877 256.198 288.245 255.954 287.833 255.761C287.613 255.684 287.404 255.581 287.208 255.453C288.047 255.647 288.87 255.901 289.673 256.212L295.581 258.16L301.518 260.029C302.357 260.255 303.18 260.537 303.982 260.874Z" fill="#FAFAFA"/>
<path d="M313.505 255.883C313.17 256.273 312.786 256.617 312.362 256.907C311.616 257.501 310.572 258.289 309.379 259.105C308.367 259.816 307.317 260.471 306.233 261.067C305.795 261.346 305.315 261.553 304.813 261.683C305.217 261.365 305.647 261.082 306.098 260.838C306.894 260.337 307.98 259.613 309.166 258.797C311.545 257.164 313.441 255.797 313.505 255.883Z" fill="#FAFAFA"/>
<path d="M368.464 219.413C368.464 219.413 359.502 220.129 356.299 222.213C353.097 224.297 312.98 253.083 312.98 253.083L322.872 268.736L350.568 255.632L368.464 219.413Z" fill="#36383F"/>
<path d="M337.805 257.753L348.235 264.888L344.514 271.729L344.496 271.763V271.801V279.85H311.68C311.675 279.84 311.671 279.829 311.666 279.817C311.634 279.738 311.591 279.624 311.545 279.484C311.453 279.203 311.353 278.822 311.318 278.415C311.282 278.008 311.312 277.585 311.47 277.213C311.627 276.846 311.912 276.52 312.408 276.307C313.471 275.848 318.112 273.747 322.484 271.762C324.671 270.769 326.792 269.805 328.366 269.09L330.256 268.229L330.781 267.99L330.919 267.927L330.955 267.911L330.964 267.907L330.966 267.906L330.966 267.906C330.967 267.906 330.967 267.906 330.904 267.769L330.967 267.906L331.005 267.888L331.029 267.853L337.805 257.753Z" fill="#E1F1E7" stroke="#36383F" stroke-width="0.3"/>
<path d="M463.739 254.578C463.739 254.578 460.34 269.631 459.482 271.948C458.247 275.209 445.554 282.61 430.036 278.605C414.015 274.479 375.863 243.236 375.863 243.236L372.046 246.061L348.192 268.394C348.192 268.394 334.491 262.673 334.491 256.987C334.491 256.987 363.489 212.393 366.136 211.549C368.782 210.705 371.486 209.876 374.7 210.555C377.914 211.235 426.134 237.894 426.134 237.894L463.739 254.578Z" fill="#36383F"/>
<path d="M364.04 235.296C364.127 235.493 364.179 235.703 364.196 235.919C364.3 236.478 364.462 237.025 364.679 237.551C364.764 237.716 364.843 237.888 364.928 238.06C365.013 238.231 365.013 238.239 365.063 238.325L365.233 238.582L365.602 239.119L366.057 239.635C366.767 240.381 367.598 240.998 368.514 241.461C370.199 242.296 372.021 242.815 373.89 242.993C375.31 243.151 376.226 243.094 376.226 243.158C376.022 243.223 375.809 243.254 375.594 243.251C375.02 243.295 374.443 243.295 373.869 243.251C371.949 243.146 370.072 242.647 368.351 241.783C367.397 241.304 366.538 240.654 365.815 239.864L365.347 239.32L364.977 238.747L364.807 238.468L364.679 238.188C364.599 238.002 364.521 237.823 364.445 237.651C364.236 237.103 364.107 236.526 364.061 235.94C364.026 235.727 364.019 235.51 364.04 235.296Z" fill="#36383F"/>
<path d="M376.226 243.158C376.027 243.082 375.84 242.975 375.672 242.843C375.317 242.621 374.834 242.27 374.252 241.819C372.719 240.627 371.431 239.146 370.46 237.458C369.526 235.748 368.944 233.865 368.748 231.923C368.675 231.343 368.632 230.76 368.621 230.176C368.593 229.962 368.593 229.745 368.621 229.531C368.685 229.531 368.748 230.441 368.976 231.887C369.249 233.775 369.85 235.601 370.751 237.279C371.722 238.923 372.963 240.388 374.423 241.611C375.523 242.571 376.262 243.108 376.226 243.158Z" fill="#36383F"/>
<path d="M348.53 268.349C348.416 268.325 348.304 268.289 348.197 268.242L347.252 267.884C346.062 267.422 344.9 266.889 343.772 266.287C341.998 265.378 340.331 264.271 338.801 262.986C337.865 262.198 337.006 261.32 336.238 260.365C335.354 259.317 334.657 258.123 334.178 256.835V256.771L334.221 256.706L343.602 242.728C349.12 234.558 354.254 227.247 358.032 222.027C359.936 219.413 361.498 217.322 362.584 215.883L363.856 214.236L364.196 213.813C364.23 213.762 364.271 213.716 364.317 213.677C364.317 213.677 364.317 213.735 364.225 213.835L363.912 214.279C363.621 214.694 363.202 215.253 362.698 215.969L358.245 222.177C354.496 227.433 349.418 234.766 343.9 242.943L334.491 256.899V256.763C334.947 258.013 335.615 259.174 336.465 260.193C337.216 261.141 338.056 262.013 338.972 262.8C340.471 264.083 342.102 265.202 343.836 266.137C344.951 266.751 346.096 267.307 347.266 267.805L348.19 268.213L348.53 268.349Z" fill="#2BC866"/>
<g opacity="0.3">
<path d="M422.351 235.31C424.694 238.947 429.829 243.187 433.472 247.927C436.902 252.395 438.763 257.415 443.066 259.814C448.847 263.058 457.184 263 462.951 259.814C454.862 258.31 446.34 254.372 440.481 248.543C438.031 246.108 435.879 243.358 433.245 241.131C430.61 238.904 425.753 235.367 422.315 235.517" fill="#36383F"/>
</g>
<path d="M378.684 243.652C378.432 243.559 378.194 243.434 377.974 243.28C377.702 243.126 377.441 242.954 377.192 242.764C376.849 242.525 376.52 242.267 376.205 241.991C375.377 241.285 374.623 240.496 373.954 239.635C372.304 237.523 371.166 235.051 370.631 232.417C370.41 231.345 370.298 230.253 370.297 229.159C370.289 228.74 370.308 228.322 370.354 227.906C370.367 227.59 370.405 227.277 370.467 226.968C370.493 226.699 370.55 226.435 370.638 226.18C370.716 226.18 370.503 227.326 370.559 229.159C370.598 230.231 370.734 231.298 370.964 232.345C371.255 233.625 371.672 234.872 372.207 236.069C372.769 237.252 373.444 238.377 374.224 239.427C374.861 240.279 375.574 241.07 376.354 241.79C377.711 243.043 378.684 243.588 378.684 243.652Z" fill="#2BC866"/>
<path d="M460.458 170.87C461.267 171.665 470.187 172.152 471.174 187.533C471.437 191.708 463.306 259.613 463.306 259.613L462.049 259.978C458.427 261.046 454.569 260.979 450.986 259.786C447.404 258.593 444.265 256.33 441.987 253.298L439.856 250.433C438.153 248.143 436.107 246.133 433.792 244.476L422.394 235.725L430.717 228.006L429.907 219.485C429.907 219.485 426.257 206.416 428.288 199.878C430.319 193.341 441.688 176.52 441.688 176.52L441.816 178.045L460.458 170.87Z" fill="#41D679"/>
<path d="M452.577 123.13C452.095 123.76 451.207 124.549 450.501 124.894C450.043 125.199 450.022 125.653 449.766 126.088C449.441 126.64 449.153 126.972 449.153 127.635C449.153 128.263 449.417 128.624 449.755 129.086L449.766 129.101C450.522 130.134 451.114 131.094 451.114 132.453C451.114 133.313 451.586 134.064 452.359 134.481C452.801 134.72 453.321 134.747 453.754 134.963C454.088 135.129 454.45 135.497 454.735 135.737C456.142 136.924 454.677 139.005 455.824 140.283C456.301 140.814 457.23 141.263 457.552 141.87C457.871 142.471 457.619 143.882 457.416 144.489C457.052 145.579 456.259 146.499 456.259 147.692C456.259 148.523 456.817 149.129 457.382 149.693C457.963 150.272 458.883 150.771 458.512 151.715C458.188 152.541 457.251 153.064 457.239 153.975C457.229 154.82 456.986 156.084 457.729 156.702C458.279 157.159 458.991 157.459 459.39 158.086C459.539 158.321 459.438 158.801 459.451 159.064C459.483 159.678 459.543 160.329 459.935 160.828C460.581 161.651 461.935 161.87 462.936 161.649C463.327 161.562 463.638 161.323 463.95 161.099C464.12 160.977 464.17 160.417 464.406 160.678C465.145 161.496 467.586 161.704 467.993 160.529C468.179 159.995 468.152 159.238 468.851 159.43C469.405 159.582 470.566 159.553 471.083 159.308C471.511 159.105 471.594 158.783 471.757 158.426C472.052 157.779 471.411 157.014 472.37 157.014C473.028 157.014 473.903 157.158 474.493 156.824C475.046 156.513 475.004 155.992 475.004 155.427C475.004 154.306 475.044 154.083 476.202 154.083C476.807 154.083 478.414 153.981 478.434 153.147C478.446 152.64 478.526 152.013 478.373 151.525C478.255 151.15 477.819 151.078 477.971 150.623C478.077 150.307 478.728 150.063 479.006 149.992L479.02 149.988C480.287 149.664 482.069 149.207 481.252 147.488C480.96 146.874 479.616 146.565 480.15 145.751C480.629 145.021 481.546 144.494 481.49 143.472C481.41 141.988 480.61 141.79 479.265 141.327C479.074 141.262 478.45 141.214 478.434 140.893C478.401 140.227 478.806 139.878 479.163 139.367C479.556 138.803 480.322 138.078 480.265 137.345C480.214 136.675 479.43 135.805 478.775 135.669C477.88 135.483 475.3 135.731 476.134 133.986C476.65 132.905 477.337 132.09 476.311 130.973C475.591 130.191 472.838 130.832 472.928 129.447C473.001 128.326 473.179 126.663 471.819 126.17C471.158 125.93 470.136 126.237 469.423 126.237C468.844 126.237 467.98 126.427 467.531 125.98C467.103 125.553 467.04 125.043 466.7 124.582C466.016 123.655 465.297 123.392 464.386 124.093C463.808 124.539 462.816 125.104 462.045 124.867C461.474 124.692 461.356 124.347 461.099 123.863C460.857 123.409 459.886 122.528 459.349 122.601C458.625 122.699 458.252 123.34 457.675 123.734C457.042 124.166 455.628 124.904 455.034 124.1C454.681 123.622 454.29 122.959 453.714 122.75C453.112 122.532 452.9 122.708 452.577 123.13Z" fill="#77401D"/>
<path d="M450.079 122.329C450.791 122.674 451.185 123.621 451.726 124.161C452.027 124.611 452.461 126.119 452.461 126.658C452.461 127.05 452.706 127.374 452.706 127.771C452.706 128.512 453.041 129.248 453.326 129.922C453.863 131.195 453.791 132.696 453.319 133.979C452.977 134.906 452.316 135.331 451.726 136.089C450.691 137.419 450.252 139.219 450.031 140.852C449.836 142.303 449.888 143.776 449.888 145.235C449.888 146.098 450.098 147.317 449.636 148.105C448.837 149.472 446.826 150.124 445.525 150.887C444.709 151.366 443.786 151.807 443.123 152.495C441.721 153.95 441.73 155.405 441.435 157.34C441.244 158.595 440.699 160.447 439.012 160.135C438.338 160.011 437.814 159.558 437.188 159.389C435.653 158.976 433.663 159.594 432.178 159.837C431.706 159.914 431.153 160.09 430.871 159.579C430.641 159.161 430.644 158.658 430.163 158.412C429.726 158.188 429.103 158.724 428.625 158.724C428.066 158.724 427.588 158.278 427.162 157.978C426.583 157.571 426.625 156.938 426.297 156.404C425.979 155.883 425.218 155.979 424.698 156.112C423.867 156.325 423.313 156.741 422.438 156.58C421.448 156.398 421.196 156.077 420.859 155.182C420.621 154.549 420.721 153.78 420.178 153.296C419.814 152.971 419.197 152.862 418.722 152.862C418.508 152.862 418.035 152.887 417.912 152.672C417.299 151.603 418.173 150.797 418.273 149.754C418.388 148.544 417.536 148.211 416.564 147.848C416.266 147.736 415.507 147.562 415.468 147.162C415.414 146.59 415.462 146.063 415.707 145.541C416.029 144.852 418.421 143.246 417.592 142.42C417.025 141.854 416.178 141.743 416.809 140.73C417.34 139.878 418.109 139.158 418.443 138.193C418.643 137.612 418.547 137.567 418.108 137.36L418.089 137.351C417.832 137.23 417.307 137.143 417.204 136.836C417.027 136.305 417.552 135.721 417.844 135.343C418.382 134.645 418.947 134.15 419.791 133.932C420.492 133.75 421.201 133.194 421.56 132.561C422.079 131.646 420.681 130.452 421.417 129.718C422.338 128.8 423.942 128.801 425.065 128.313C426.019 127.9 425.452 126.683 425.576 125.871C425.686 125.151 425.896 124.772 426.611 124.534C427.27 124.315 428.113 124.201 428.802 124.168C429.736 124.123 431.211 123.993 431.606 123.008C431.779 122.577 431.649 122.278 432.056 121.936C432.837 121.279 433.535 121.108 434.547 121.108C435.222 121.108 435.887 121.208 436.561 121.23C437.194 121.251 437.724 121.677 438.345 121.718C438.994 121.762 439.699 121.444 440.182 121.013C440.601 120.638 441.206 120.212 441.775 120.158L441.816 120.154C442.712 120.069 444.2 119.927 444.892 120.592C445.634 121.304 445.474 122.665 446.853 122.695C447.918 122.719 449.023 121.818 450.079 122.329Z" fill="#77401D"/>
<path d="M464.993 141.282C464.443 135.213 461.225 129.306 456.068 126.033C450.911 122.761 443.874 122.464 438.717 125.685C435.467 127.858 433.011 131.023 431.718 134.704C430.361 138.338 430.949 141.346 430.981 145.218C430.981 147.228 431.253 152.62 432.991 153.631L460.133 158.482C463.584 153.502 465.548 147.35 464.993 141.282Z" fill="#77401D"/>
<path d="M464.05 136.637C463.403 133.029 459.901 129.551 457.148 127.109C454.007 124.352 453.561 124.474 449.393 124.371C444.979 124.255 440.158 124.275 436.714 127.032C434.775 128.559 433.567 130.762 432.572 132.984C430.271 138.138 430.633 144.02 431.324 149.611C432.016 155.203 433.218 160.485 437.787 163.784L457.09 160.808C461.348 159.229 462.77 154.366 463.972 150.017C465.174 145.669 464.799 141.088 464.05 136.637Z" fill="#77401D"/>
<path d="M433.421 140.233C433.668 134.97 438.816 129.649 443.64 130.136L459.301 133.168V136.002L459.478 171.366C453.528 172.854 447.493 173.901 441.413 174.501L441.278 167.41C441.278 167.41 435.088 166.372 433.709 157.621C433.026 153.242 433.144 146.087 433.421 140.233Z" fill="#DE9755"/>
<path d="M441.369 167.341C445.369 167.359 449.653 166.009 453.087 163.76C453.087 163.76 449.958 170.57 441.369 169.847V167.341Z" fill="#9F4F36"/>
<path d="M437.909 127.618C434.678 129.815 432.403 133.416 431.305 137.403L431.848 140.67C432.604 139.091 432.701 137.397 434.264 135.78C435.691 134.483 437.43 133.576 439.312 133.145C445.205 131.651 447.189 129.518 449.793 125.679C445.974 124.719 441.166 125.415 437.909 127.618Z" fill="#77401D"/>
<path d="M463.345 136.225C462.476 133.284 460.785 130.651 458.47 128.633C456.155 126.615 453.311 125.295 450.272 124.828L449.794 125.672L445.315 130.89C444.904 131.291 444.613 131.797 444.475 132.353C444.452 132.735 444.527 133.116 444.694 133.461C444.86 133.806 445.112 134.103 445.425 134.324C446.847 135.484 448.831 135.555 450.666 135.613C452.501 135.671 454.505 135.812 455.836 137.062C457.497 138.621 457.458 141.269 456.902 143.504C456.322 146.138 456.137 148.843 456.353 151.531C456.56 153.56 459.248 148.632 461.019 149.656C461.51 149.94 460.179 157.902 460.696 157.657C461.213 157.413 461.155 154.552 461.342 154.018C462.317 151.153 463.086 148.223 463.643 145.25C464.199 142.255 464.098 139.176 463.345 136.225Z" fill="#77401D"/>
<path d="M458.324 151.538C458.349 151.093 458.487 150.663 458.724 150.286C458.962 149.91 459.291 149.599 459.682 149.384C460.073 149.169 460.512 149.057 460.958 149.057C461.404 149.057 461.843 149.17 462.234 149.386C463.138 149.927 463.817 151.009 463.688 153.045C463.345 158.469 457.949 157.007 457.956 156.852C457.962 156.698 458.162 153.786 458.324 151.538Z" fill="#DE9755"/>
<path d="M459.739 154.894C459.739 154.894 459.829 154.971 459.984 155.055C460.203 155.164 460.455 155.184 460.689 155.113C461.277 154.939 461.826 154.063 461.917 153.09C461.961 152.625 461.901 152.157 461.742 151.718C461.704 151.547 461.626 151.387 461.513 151.253C461.401 151.118 461.258 151.013 461.096 150.945C460.99 150.908 460.874 150.91 460.768 150.95C460.663 150.99 460.575 151.066 460.521 151.164C460.437 151.312 460.463 151.421 460.437 151.428C460.411 151.434 460.321 151.331 460.385 151.112C460.42 150.978 460.503 150.861 460.618 150.784C460.777 150.682 460.969 150.645 461.154 150.681C461.374 150.74 461.576 150.855 461.738 151.014C461.901 151.173 462.021 151.371 462.085 151.589C462.286 152.074 462.366 152.6 462.317 153.122C462.208 154.211 461.574 155.197 460.773 155.37C460.625 155.405 460.471 155.405 460.323 155.37C460.175 155.335 460.037 155.267 459.92 155.171C459.739 155.029 459.72 154.907 459.739 154.894Z" fill="#9F4F36"/>
<path d="M459.7 129.1C460.431 129.949 461.081 130.866 461.639 131.837C462.26 132.885 462.794 133.982 463.235 135.117C463.778 136.504 464.185 137.941 464.45 139.407C464.944 142.076 464.915 144.814 464.366 147.472C464.321 147.716 464.262 147.957 464.192 148.194C464.127 148.413 464.069 148.626 464.017 148.838C463.929 149.181 463.816 149.516 463.681 149.843L463.448 150.487L463.358 150.7C463.369 150.623 463.388 150.547 463.416 150.474C463.468 150.313 463.539 150.107 463.623 149.83C463.741 149.501 463.843 149.165 463.927 148.825L464.088 148.181C464.155 147.944 464.209 147.703 464.25 147.46C464.765 144.816 464.778 142.1 464.288 139.452C464.022 137.995 463.622 136.565 463.093 135.181C462.657 134.054 462.139 132.96 461.542 131.908L461.174 131.264L460.812 130.717L460.502 130.233C460.405 130.085 460.308 129.963 460.224 129.847L459.829 129.306L459.7 129.1Z" fill="#FFA300"/>
<path d="M460.231 130.755C460.223 130.81 460.212 130.863 460.198 130.916C460.154 131.075 460.079 131.224 459.979 131.354C459.593 131.818 459.074 132.153 458.492 132.314C457.768 132.553 456.902 132.765 455.907 132.958C454.843 133.19 453.763 133.345 452.676 133.422C451.599 133.504 450.516 133.473 449.445 133.332C448.563 133.211 447.696 132.995 446.86 132.688C446.302 132.484 445.763 132.229 445.251 131.928C445.11 131.848 444.974 131.76 444.844 131.664C444.753 131.606 444.702 131.567 444.708 131.561C444.715 131.554 444.908 131.676 445.283 131.87C445.802 132.149 446.342 132.386 446.899 132.578C447.725 132.861 448.578 133.059 449.445 133.171C450.517 133.306 451.599 133.334 452.676 133.255C454.618 133.09 456.539 132.73 458.408 132.179C458.975 132.031 459.487 131.722 459.882 131.29C460.022 131.128 460.139 130.948 460.231 130.755Z" fill="#FFA300"/>
<path d="M459.248 128.906C459.248 128.906 459.248 128.945 459.158 129.016C459.067 129.087 459.003 129.19 458.874 129.306C458.504 129.641 458.099 129.935 457.665 130.182C456.21 130.978 454.575 131.388 452.915 131.374C451.268 131.362 449.629 131.146 448.036 130.729C447.429 130.575 446.938 130.439 446.595 130.343C446.419 130.299 446.246 130.243 446.078 130.175C446.26 130.194 446.439 130.229 446.614 130.278L448.062 130.613C449.648 131.009 451.274 131.225 452.909 131.258C454.543 131.265 456.155 130.878 457.607 130.13C458.195 129.779 458.745 129.369 459.248 128.906Z" fill="#FFA300"/>
<path d="M458.13 128.262C458.008 128.319 457.88 128.362 457.749 128.391C457.497 128.468 457.103 128.565 456.67 128.661C454.264 129.158 451.78 129.143 449.38 128.616C448.922 128.52 448.553 128.417 448.301 128.339C448.17 128.307 448.042 128.261 447.92 128.204C448.056 128.212 448.19 128.235 448.321 128.275C448.573 128.339 448.967 128.417 449.4 128.5C450.595 128.73 451.808 128.849 453.025 128.855C454.238 128.857 455.449 128.754 456.644 128.546C457.109 128.462 457.478 128.391 457.73 128.333C457.86 128.293 457.994 128.27 458.13 128.262Z" fill="#FFA300"/>
<path d="M450.867 123.656C450.835 123.789 450.792 123.918 450.737 124.043C450.64 124.288 450.485 124.635 450.279 125.054C449.157 127.254 447.513 129.147 445.49 130.569C445.102 130.839 444.779 131.039 444.553 131.168C444.436 131.24 444.313 131.303 444.185 131.355C444.285 131.263 444.395 131.183 444.514 131.116C444.734 130.968 445.051 130.755 445.425 130.472C446.402 129.743 447.297 128.912 448.094 127.992C448.892 127.073 449.588 126.071 450.169 125.003C450.395 124.59 450.563 124.249 450.679 124.017C450.726 123.889 450.789 123.768 450.867 123.656Z" fill="#FFA300"/>
<path d="M431.524 135.31C431.524 135.31 431.524 135.252 431.615 135.168C431.705 135.084 431.776 134.949 431.912 134.788C432.286 134.326 432.682 133.883 433.101 133.461C433.721 132.833 434.398 132.263 435.124 131.76C435.555 131.467 436.004 131.2 436.468 130.961C436.972 130.711 437.492 130.495 438.026 130.317C439.901 129.712 441.879 129.493 443.842 129.673C444.433 129.727 445.021 129.822 445.599 129.956C445.806 130.001 445.961 130.053 446.065 130.079C446.121 130.09 446.176 130.109 446.226 130.137C446.226 130.137 446 130.098 445.58 130.021C444.999 129.912 444.412 129.835 443.822 129.789C441.879 129.631 439.924 129.85 438.064 130.433C436.217 131.061 434.543 132.108 433.172 133.493C432.636 134.015 432.229 134.459 431.951 134.781L431.628 135.142C431.598 135.201 431.563 135.257 431.524 135.31Z" fill="#FFA300"/>
<path d="M435.609 129.473C435.74 129.374 435.879 129.283 436.022 129.203C436.196 129.094 436.375 128.995 436.559 128.906C436.766 128.803 436.992 128.674 437.257 128.565C437.522 128.455 437.806 128.32 438.129 128.211C438.466 128.082 438.809 127.97 439.157 127.876C440.75 127.428 442.411 127.264 444.062 127.392C444.436 127.431 444.798 127.463 445.134 127.528C445.47 127.592 445.781 127.644 446.058 127.708C446.312 127.761 446.562 127.828 446.808 127.908C446.996 127.958 447.182 128.019 447.364 128.088C447.521 128.139 447.675 128.201 447.823 128.275C447.657 128.25 447.495 128.209 447.338 128.153C447.156 128.089 446.971 128.037 446.782 127.998C446.563 127.94 446.311 127.869 446.033 127.818C445.755 127.766 445.445 127.702 445.115 127.663C444.785 127.624 444.423 127.579 444.049 127.547C443.233 127.487 442.415 127.487 441.599 127.547C440.788 127.633 439.984 127.782 439.195 127.992C438.834 128.095 438.485 128.185 438.174 128.307C437.864 128.43 437.567 128.533 437.302 128.642C437.037 128.752 436.811 128.861 436.604 128.958C436.397 129.055 436.223 129.138 436.081 129.216C435.935 129.322 435.777 129.408 435.609 129.473Z" fill="#FFA300"/>
<path d="M462.634 156.259C462.738 156.208 462.899 156.259 463.08 156.459C463.336 156.746 463.507 157.098 463.571 157.477C463.621 157.758 463.621 158.046 463.571 158.327C463.513 158.679 463.374 159.012 463.164 159.3C462.922 159.631 462.6 159.895 462.227 160.067C461.787 160.273 461.289 160.318 460.818 160.196C460.359 160.071 459.954 159.796 459.668 159.416C459.423 159.095 459.261 158.719 459.196 158.321C459.15 158.006 459.166 157.685 459.245 157.376C459.324 157.068 459.463 156.778 459.655 156.524C459.877 156.212 460.178 155.965 460.528 155.808C460.773 155.712 460.941 155.725 461.012 155.808C461.083 155.892 460.864 156.453 460.689 157.065C460.599 157.367 460.599 157.69 460.689 157.992C460.731 158.127 460.802 158.251 460.899 158.355C460.995 158.459 461.113 158.54 461.245 158.591C461.357 158.622 461.475 158.622 461.587 158.591C461.731 158.538 461.863 158.457 461.975 158.353C462.194 158.133 462.337 157.848 462.382 157.541C462.518 156.897 462.408 156.362 462.634 156.259Z" fill="#41D679"/>
<path d="M435.098 148.284C435.093 148.556 435.196 148.82 435.386 149.018C435.575 149.216 435.835 149.331 436.11 149.341C436.244 149.351 436.378 149.335 436.506 149.294C436.634 149.252 436.752 149.185 436.853 149.098C436.955 149.011 437.038 148.904 437.098 148.784C437.157 148.665 437.192 148.534 437.2 148.401C437.203 148.128 437.098 147.864 436.909 147.666C436.719 147.468 436.459 147.351 436.184 147.34C436.05 147.329 435.915 147.345 435.787 147.387C435.66 147.429 435.542 147.496 435.44 147.584C435.339 147.672 435.257 147.779 435.198 147.9C435.139 148.02 435.105 148.15 435.098 148.284Z" fill="#36383F"/>
<path d="M434.345 144.413C434.476 144.548 435.278 143.978 436.408 143.978C437.538 143.978 438.375 144.548 438.497 144.413C438.558 144.352 438.423 144.104 438.059 143.843C437.571 143.503 436.987 143.322 436.39 143.326C435.8 143.324 435.223 143.506 434.743 143.848C434.402 144.104 434.283 144.352 434.345 144.413Z" fill="#36383F"/>
<path d="M444.936 148.284C444.933 148.556 445.036 148.819 445.225 149.017C445.414 149.214 445.674 149.33 445.948 149.341C446.082 149.352 446.217 149.336 446.345 149.295C446.473 149.253 446.591 149.187 446.693 149.099C446.795 149.012 446.878 148.905 446.937 148.785C446.996 148.665 447.031 148.535 447.039 148.401C447.041 148.129 446.937 147.866 446.748 147.668C446.56 147.47 446.301 147.352 446.027 147.34C445.893 147.329 445.757 147.345 445.629 147.387C445.501 147.429 445.383 147.496 445.282 147.584C445.18 147.672 445.097 147.779 445.038 147.899C444.978 148.019 444.944 148.15 444.936 148.284Z" fill="#36383F"/>
<path d="M445.116 144.413C445.247 144.548 446.049 143.978 447.179 143.978C448.309 143.978 449.146 144.548 449.268 144.413C449.325 144.352 449.198 144.104 448.83 143.843C448.34 143.503 447.755 143.322 447.157 143.326C446.568 143.324 445.993 143.507 445.514 143.848C445.173 144.104 445.05 144.352 445.116 144.413Z" fill="#36383F"/>
<path d="M441.585 153.255C441.585 153.194 440.884 153.068 439.741 152.92C439.452 152.889 439.181 152.833 439.132 152.637C439.103 152.334 439.17 152.03 439.325 151.767L440.201 149.593C441.397 146.479 442.264 143.939 442.137 143.874C442.01 143.809 440.937 146.314 439.741 149.428L438.913 151.628C438.731 151.974 438.678 152.373 438.764 152.755C438.805 152.858 438.868 152.951 438.95 153.027C439.032 153.102 439.13 153.158 439.237 153.189C439.397 153.233 439.562 153.256 439.728 153.259C440.854 153.329 441.585 153.329 441.585 153.255Z" fill="#36383F"/>
<path d="M440.569 155.935C440.956 155.608 441.42 155.381 441.92 155.274C442.42 155.166 442.941 155.18 443.438 155.316C443.762 155.408 444.059 155.577 444.304 155.808C444.549 156.039 444.733 156.324 444.842 156.639C444.962 157.003 444.968 157.393 444.857 157.756C444.747 158.119 444.526 158.438 444.225 158.671C443.923 158.903 443.556 159.038 443.171 159.056C442.786 159.074 442.403 158.976 442.073 158.774C441.415 158.413 440.962 157.781 440.539 157.154C440.408 156.987 440.315 156.794 440.266 156.589C440.246 156.477 440.255 156.363 440.293 156.257C440.33 156.151 440.395 156.056 440.481 155.983" fill="#9F4F36"/>
<path d="M444.632 154.797C444.43 154.731 444.071 156.069 442.658 156.701C441.245 157.333 439.848 156.802 439.79 156.986C439.735 157.056 440.039 157.333 440.643 157.514C441.43 157.739 442.271 157.682 443.017 157.352C443.732 157.036 444.295 156.456 444.586 155.734C444.784 155.188 444.724 154.814 444.632 154.797Z" fill="#36383F"/>
<path d="M445.471 140.342C445.58 140.651 446.715 140.508 448.046 140.669C449.378 140.829 450.451 141.195 450.626 140.921C450.705 140.79 450.521 140.486 450.088 140.203C449.507 139.837 448.851 139.608 448.167 139.533C447.484 139.457 446.792 139.538 446.145 139.768C445.668 139.96 445.423 140.199 445.471 140.342Z" fill="#36383F"/>
<path d="M434.717 140.969C434.914 141.225 435.698 140.969 436.635 140.969C437.573 140.969 438.388 141.143 438.554 140.877C438.633 140.747 438.51 140.49 438.164 140.247C437.701 139.945 437.154 139.793 436.6 139.812C436.049 139.817 435.513 139.997 435.072 140.325C434.739 140.582 434.629 140.843 434.717 140.969Z" fill="#36383F"/>
<path d="M439.359 217.551C438.946 217.552 438.537 217.464 438.159 217.293C437.228 216.967 436.358 216.483 435.588 215.861C434.821 215.228 434.165 214.467 433.65 213.613C433.414 213.274 433.248 212.892 433.16 212.489C433.918 213.624 434.813 214.661 435.823 215.575C436.915 216.381 438.103 217.044 439.359 217.551Z" fill="#36383F"/>
<g opacity="0.3">
<path d="M434.787 242.664L434.36 242.377L434.787 242.664Z" fill="#36383F"/>
</g>
<g opacity="0.3">
<path d="M464.648 209.818C464.304 209.653 463.92 209.591 463.542 209.641C463.164 209.69 462.808 209.849 462.517 210.097C461.943 210.604 461.472 211.219 461.132 211.909L448.79 233.477C447.142 236.341 445.41 239.327 442.683 241.196C439.956 243.065 435.872 240.544 434.771 242.664C438.237 244.97 444.493 247.906 448.229 246.688C451.964 245.471 454.507 241.912 456.389 238.403C460.571 230.57 462.915 221.891 465.223 213.298C465.55 212.073 465.734 210.462 464.648 209.818Z" fill="#36383F"/>
</g>
<path d="M446.369 206.223L439.53 222.915L409.668 217.129C409.668 217.129 396.885 207.104 396.466 206.782L392.78 207.297L386.758 207.132L381.404 210.047L380.495 210.204L405.407 225.765L434.346 242.378C436.249 243.661 438.435 244.455 440.713 244.689C442.991 244.924 445.291 244.592 447.413 243.724C449.221 242.983 450.856 241.87 452.213 240.456C453.571 239.042 454.62 237.357 455.295 235.51L464.612 209.982L446.369 206.223Z" fill="#DE9755"/>
<path d="M381.73 209.868C382.253 209.671 382.796 209.532 383.349 209.452C384.358 209.245 385.757 208.98 387.312 208.736L388.732 208.486H388.775H388.817C389.982 208.851 390.983 209.202 391.693 209.438C392.084 209.541 392.46 209.698 392.808 209.904C392.407 209.868 392.011 209.784 391.63 209.653C390.919 209.46 389.883 209.173 388.711 208.822H388.796L387.376 209.08C385.828 209.352 384.421 209.581 383.399 209.725C382.849 209.834 382.29 209.882 381.73 209.868Z" fill="#9F4F36"/>
<path d="M383.271 211.83C384.898 211.624 386.539 211.541 388.178 211.579H389.35H389.393C390.548 212.06 391.662 212.637 392.723 213.305C391.53 212.936 390.368 212.469 389.251 211.909H389.322H388.157C386.529 212.01 384.895 211.983 383.271 211.83Z" fill="#9F4F36"/>
<path d="M446.368 206.223C446.344 206.334 446.308 206.442 446.262 206.545L445.921 207.455C445.594 208.278 445.133 209.431 444.565 210.885L439.679 222.993L439.629 223.115H439.501L425.149 220.358L409.639 217.265H409.597L400.073 209.71L397.417 207.562L396.707 206.982C396.623 206.923 396.546 206.853 396.48 206.774C396.572 206.821 396.658 206.878 396.736 206.946L397.446 207.483L400.159 209.553L409.767 216.993H409.696L425.22 219.979L439.558 222.779L439.38 222.872L444.352 210.827L445.772 207.44L446.162 206.545C446.219 206.431 446.288 206.323 446.368 206.223Z" fill="#9F4F36"/>
<path d="M443.712 234.866C443.539 234.259 443.404 233.642 443.308 233.018C443.02 231.526 442.619 230.059 442.107 228.629C441.595 227.203 440.973 225.819 440.247 224.49C439.918 223.951 439.619 223.394 439.352 222.822C439.79 223.28 440.165 223.795 440.467 224.354C441.272 225.662 441.938 227.052 442.455 228.5C442.974 229.948 443.345 231.445 443.563 232.968C443.697 233.591 443.747 234.229 443.712 234.866Z" fill="#9F4F36"/>
<path d="M463.774 120.724C460.739 120.465 457.698 121.15 455.061 122.686C455.365 122.344 455.731 122.065 456.14 121.862C458.048 120.747 460.248 120.247 462.446 120.43C462.903 120.445 463.353 120.545 463.774 120.724Z" fill="#FAFAFA"/>
<path d="M406.145 228.944C406.321 228.666 406.44 228.355 406.495 228.031C406.551 227.706 406.541 227.373 406.468 227.052C406.395 226.73 406.259 226.427 406.068 226.159C405.877 225.892 405.636 225.665 405.357 225.492L376.418 207.591L371.149 171.071C371.078 170.569 370.827 170.112 370.443 169.784C370.06 169.457 369.57 169.283 369.068 169.295C368.779 169.302 368.495 169.369 368.234 169.494C367.973 169.618 367.741 169.797 367.553 170.018C367.365 170.238 367.225 170.497 367.142 170.776C367.059 171.055 367.036 171.348 367.073 171.637L372.143 210.018L406.145 228.944Z" fill="#41D679"/>
<path d="M461.9 252.424C461.9 252.424 461.736 252.589 461.396 252.825C461.193 252.974 460.979 253.108 460.756 253.226C460.471 253.399 460.175 253.552 459.869 253.684C459.076 254.048 458.247 254.329 457.397 254.522C456.357 254.747 455.295 254.858 454.23 254.852C453.164 254.824 452.104 254.678 451.07 254.415C450.229 254.196 449.413 253.892 448.634 253.505C448.332 253.359 448.038 253.196 447.753 253.018C447.536 252.892 447.327 252.751 447.128 252.596C446.802 252.345 446.624 252.202 446.638 252.181C446.653 252.159 447.413 252.668 448.769 253.269C449.545 253.617 450.351 253.892 451.176 254.092C453.207 254.574 455.317 254.608 457.362 254.193C458.191 254.027 459.004 253.788 459.791 253.477C461.111 252.889 461.864 252.352 461.9 252.424Z" fill="#36383F"/>
<path d="M464.364 174.787C464.364 174.787 453.001 172.045 450.161 183.022C448.107 190.573 445.585 197.987 442.612 205.22L468.603 210.727C468.603 210.727 477.104 181.647 464.364 174.787Z" fill="#2BC866"/>
<path d="M468.618 210.734C468.443 210.727 468.269 210.703 468.099 210.663L466.615 210.376L461.118 209.266L442.598 205.4L442.392 205.357L442.47 205.156C443.002 203.781 443.521 202.292 444.032 200.824C445.417 196.728 446.596 192.768 447.491 189.13C447.718 188.221 447.902 187.319 448.144 186.459C448.385 185.6 448.662 184.769 448.953 183.989C449.245 183.208 449.543 182.449 449.848 181.733C450.112 181.031 450.445 180.357 450.842 179.721C451.578 178.659 452.5 177.742 453.562 177.014C454.352 176.453 455.209 175.994 456.112 175.647C456.678 175.418 457.273 175.269 457.88 175.203C458.09 175.182 458.302 175.182 458.512 175.203C458.305 175.24 458.097 175.266 457.887 175.282C457.294 175.383 456.715 175.554 456.162 175.79C455.282 176.166 454.45 176.647 453.683 177.222C452.656 177.95 451.768 178.86 451.063 179.907C450.678 180.535 450.357 181.199 450.104 181.891C449.813 182.607 449.514 183.323 449.238 184.132C448.961 184.941 448.684 185.736 448.456 186.588C448.229 187.44 448.044 188.336 447.817 189.252C446.937 192.911 445.765 196.878 444.373 200.989C443.869 202.485 443.336 203.953 442.804 205.335L442.676 205.092L461.14 209.073L466.615 210.29L468.085 210.634C468.265 210.655 468.443 210.689 468.618 210.734Z" fill="#36383F"/>
<path d="M469.391 206.159C469.413 205.824 469.47 205.493 469.562 205.17C469.704 204.547 469.881 203.631 470.073 202.499C471.091 196.599 471.048 190.561 469.945 184.676C469.732 183.545 469.541 182.636 469.391 182.013C469.302 181.691 469.237 181.363 469.2 181.031C469.342 181.334 469.452 181.651 469.526 181.977C469.718 182.593 469.952 183.495 470.194 184.619C471.442 190.515 471.488 196.606 470.329 202.521C470.102 203.652 469.881 204.562 469.697 205.177C469.624 205.513 469.522 205.841 469.391 206.159Z" fill="#36383F"/>
<path d="M463.306 259.613C463.15 259.684 462.988 259.742 462.823 259.785C462.503 259.893 462.02 260.029 461.403 260.179C459.631 260.61 457.813 260.819 455.991 260.802C453.265 260.762 450.588 260.07 448.179 258.783C446.76 258.037 445.432 257.127 444.224 256.069C443.587 255.507 442.986 254.905 442.427 254.264C441.852 253.613 441.348 252.904 440.808 252.209C438.825 249.578 436.623 247.122 434.225 244.869C432.158 243.15 429.995 241.551 427.748 240.079C426.239 239.058 424.795 237.944 423.423 236.742C422.955 236.305 422.593 235.954 422.365 235.704C422.24 235.583 422.126 235.451 422.024 235.31C422.163 235.411 422.294 235.524 422.415 235.646C422.656 235.883 423.033 236.212 423.523 236.635C424.919 237.788 426.377 238.864 427.89 239.857C430.168 241.305 432.357 242.891 434.445 244.604C436.87 246.863 439.094 249.33 441.092 251.98C441.639 252.696 442.136 253.412 442.697 254.021C443.244 254.651 443.833 255.245 444.458 255.797C445.642 256.841 446.944 257.742 448.336 258.482C450.689 259.757 453.306 260.461 455.977 260.537C457.779 260.576 459.58 260.411 461.346 260.043C461.978 259.907 462.461 259.8 462.766 259.714C462.942 259.66 463.123 259.626 463.306 259.613Z" fill="#36383F"/>
<path d="M454.812 186.538L454.869 187.584C455.04 187.992 455.323 188.343 455.686 188.593L456.652 188.901L455.65 188.966C455.245 189.138 454.898 189.424 454.649 189.789L454.422 190.742L454.28 189.753C454.106 189.349 453.823 189.001 453.463 188.751L452.504 188.436L453.499 188.371C453.902 188.199 454.247 187.913 454.493 187.548L454.812 186.538Z" fill="#FAFAFA"/>
<path d="M459.769 194.05L459.727 195.102C459.856 195.522 460.102 195.895 460.437 196.177L461.367 196.578H460.366C459.948 196.709 459.577 196.958 459.293 197.294L458.981 198.217L458.931 197.215C458.798 196.795 458.552 196.421 458.221 196.134L457.298 195.74H458.292C458.709 195.61 459.079 195.362 459.357 195.024L459.769 194.05Z" fill="#FAFAFA"/>
<path d="M466.7 190.219V190.842C466.78 191.088 466.928 191.307 467.126 191.472L467.68 191.715H467.084C466.837 191.795 466.618 191.944 466.452 192.145L466.267 192.689V192.102C466.187 191.853 466.04 191.632 465.841 191.465L465.294 191.236H465.883C466.128 191.155 466.345 191.006 466.508 190.806L466.7 190.219Z" fill="#FAFAFA"/>
<path d="M465.727 201.712V202.327C465.809 202.575 465.956 202.795 466.153 202.965L466.707 203.201H466.111C465.866 203.282 465.649 203.431 465.486 203.631L465.301 204.175L465.266 203.588C465.188 203.338 465.04 203.117 464.84 202.95L464.3 202.714H464.882C465.131 202.638 465.351 202.489 465.514 202.285L465.727 201.712Z" fill="#FAFAFA"/>
<path d="M450.409 198.647V199.263C450.484 199.514 450.633 199.736 450.835 199.9L451.382 200.136H450.793C450.545 200.215 450.325 200.364 450.161 200.566L449.976 201.11L449.94 200.523C449.863 200.273 449.715 200.052 449.514 199.886L448.975 199.649H449.557C449.802 199.567 450.021 199.418 450.189 199.22L450.409 198.647Z" fill="#FAFAFA"/>
<path d="M461.494 180.187V180.81C461.574 181.058 461.722 181.279 461.921 181.447L462.474 181.683H461.878C461.631 181.763 461.412 181.912 461.246 182.113L461.061 182.657V182.07C460.981 181.823 460.834 181.605 460.635 181.44L460.088 181.203H460.678C460.922 181.123 461.139 180.974 461.303 180.774L461.494 180.187Z" fill="#FAFAFA"/>
<path d="M468.618 207.018C468.618 207.118 463.05 205.965 456.233 204.447C449.415 202.929 443.897 201.583 443.919 201.504C443.94 201.425 449.493 202.557 456.311 204.082C463.128 205.607 468.639 206.918 468.618 207.018Z" fill="#FAFAFA"/>
<path d="M468.057 208.45C468.057 208.55 462.489 207.397 455.672 205.872C448.854 204.347 443.336 203.008 443.357 202.936C443.379 202.865 448.925 203.989 455.75 205.514C462.574 207.039 468.078 208.35 468.057 208.45Z" fill="#FAFAFA"/>
<path d="M419.703 220.33C418.213 220.216 416.735 219.977 415.285 219.614C413.811 219.371 412.36 219.005 410.946 218.518C412.433 218.636 413.908 218.875 415.356 219.234C416.832 219.481 418.285 219.847 419.703 220.33Z" fill="#FAFAFA"/>
<path d="M464.364 174.787C464.364 174.787 453.001 172.045 450.161 183.022C448.107 190.573 445.585 197.987 442.612 205.22L468.603 210.727C468.603 210.727 477.104 181.647 464.364 174.787Z" fill="#41D679"/>
<path d="M468.618 210.734C468.443 210.727 468.269 210.703 468.099 210.663L466.615 210.376L461.118 209.266L442.598 205.4L442.392 205.357L442.47 205.156C443.002 203.781 443.521 202.292 444.032 200.824C445.417 196.728 446.596 192.768 447.491 189.13C447.718 188.221 447.902 187.319 448.144 186.459C448.385 185.6 448.662 184.769 448.953 183.989C449.245 183.208 449.543 182.449 449.848 181.733C450.112 181.031 450.445 180.357 450.842 179.721C451.578 178.659 452.5 177.742 453.562 177.014C454.352 176.453 455.209 175.994 456.112 175.647C456.678 175.418 457.273 175.269 457.88 175.203C458.09 175.182 458.302 175.182 458.512 175.203C458.305 175.24 458.097 175.266 457.887 175.282C457.294 175.383 456.715 175.554 456.162 175.79C455.282 176.166 454.45 176.647 453.683 177.222C452.656 177.95 451.768 178.86 451.063 179.907C450.678 180.535 450.357 181.199 450.104 181.891C449.813 182.607 449.514 183.323 449.238 184.132C448.961 184.941 448.684 185.736 448.456 186.588C448.229 187.44 448.044 188.336 447.817 189.252C446.937 192.911 445.765 196.878 444.373 200.989C443.869 202.485 443.336 203.953 442.804 205.335L442.676 205.092L461.14 209.073L466.615 210.29L468.085 210.634C468.265 210.655 468.443 210.689 468.618 210.734Z" fill="#36383F"/>
<path d="M446.369 206.223L439.53 222.915L409.668 217.129C409.668 217.129 396.885 207.104 396.466 206.782L392.78 207.297L386.758 207.132L381.404 210.047L380.495 210.204L405.407 225.765L434.346 242.378C436.249 243.661 438.435 244.455 440.713 244.689C442.991 244.924 445.291 244.592 447.413 243.724C449.221 242.983 450.856 241.87 452.213 240.456C453.571 239.042 454.62 237.357 455.295 235.51L464.612 209.982L446.369 206.223Z" fill="#DE9755"/>
<path d="M381.73 209.868C382.253 209.671 382.796 209.532 383.349 209.452C384.358 209.245 385.757 208.98 387.312 208.736L388.732 208.486H388.775H388.817C389.982 208.851 390.983 209.202 391.693 209.438C392.084 209.541 392.46 209.698 392.808 209.904C392.407 209.868 392.011 209.784 391.63 209.653C390.919 209.46 389.883 209.173 388.711 208.822H388.796L387.376 209.08C385.828 209.352 384.421 209.581 383.399 209.725C382.849 209.834 382.29 209.882 381.73 209.868Z" fill="#9F4F36"/>
<path d="M383.271 211.83C384.898 211.624 386.539 211.541 388.178 211.579H389.35H389.393C390.548 212.06 391.662 212.637 392.723 213.305C391.53 212.936 390.368 212.469 389.251 211.909H389.322H388.157C386.529 212.01 384.895 211.983 383.271 211.83Z" fill="#9F4F36"/>
<path d="M446.368 206.223C446.344 206.334 446.308 206.442 446.262 206.545L445.921 207.455C445.594 208.278 445.133 209.431 444.565 210.885L439.679 222.993L439.629 223.115H439.501L425.149 220.358L409.639 217.265H409.597L400.073 209.71L397.417 207.562L396.707 206.982C396.623 206.923 396.546 206.853 396.48 206.774C396.572 206.821 396.658 206.878 396.736 206.946L397.446 207.483L400.159 209.553L409.767 216.993H409.696L425.22 219.979L439.558 222.779L439.38 222.872L444.352 210.827L445.772 207.44L446.162 206.545C446.219 206.431 446.288 206.323 446.368 206.223Z" fill="#9F4F36"/>
<path d="M443.712 234.866C443.539 234.259 443.404 233.642 443.308 233.018C443.02 231.526 442.619 230.059 442.107 228.629C441.595 227.203 440.973 225.819 440.247 224.49C439.918 223.951 439.619 223.394 439.352 222.822C439.79 223.28 440.165 223.795 440.467 224.354C441.272 225.662 441.938 227.052 442.455 228.5C442.974 229.948 443.345 231.445 443.563 232.968C443.697 233.591 443.747 234.229 443.712 234.866Z" fill="#9F4F36"/>
<path d="M375.609 203.853C375.514 203.438 375.447 203.017 375.41 202.592C375.296 201.712 375.154 200.544 374.977 199.127C374.622 196.205 374.117 192.174 373.521 187.72C372.924 183.266 372.328 179.248 371.895 176.334C371.689 174.902 371.525 173.756 371.397 172.883C371.317 172.462 371.269 172.036 371.255 171.608C371.375 172.019 371.47 172.438 371.539 172.861C371.696 173.67 371.909 174.837 372.157 176.291C372.654 179.191 373.286 183.215 373.883 187.669C374.479 192.123 374.948 196.169 375.239 199.127C375.381 200.595 375.488 201.783 375.552 202.607C375.605 203.02 375.624 203.436 375.609 203.853Z" fill="#FAFAFA"/>
<path d="M460.555 169.489C456.436 171.494 446.024 172.472 441.333 172.711C441.333 175.289 440.647 177.843 440.304 178.798L460.898 172.711L460.555 169.489Z" fill="#41D679"/>
<path fill-rule="evenodd" clip-rule="evenodd" d="M383.418 245.318C383.557 245.179 383.781 245.179 383.92 245.318C384.608 246.012 385.277 246.661 386.021 247.261C386.174 247.385 386.199 247.61 386.077 247.764C385.954 247.919 385.731 247.944 385.578 247.82C384.802 247.194 384.11 246.523 383.418 245.825C383.279 245.685 383.279 245.458 383.418 245.318Z" fill="#2BC866"/>
<path fill-rule="evenodd" clip-rule="evenodd" d="M389.758 250.933C389.862 250.765 390.08 250.713 390.247 250.817C391.057 251.322 391.83 251.878 392.581 252.446C392.738 252.565 392.77 252.789 392.652 252.947C392.535 253.105 392.312 253.138 392.155 253.019C391.412 252.457 390.658 251.915 389.873 251.426C389.707 251.322 389.655 251.101 389.758 250.933Z" fill="#2BC866"/>
<path fill-rule="evenodd" clip-rule="evenodd" d="M395.242 254.729C395.325 254.55 395.536 254.473 395.714 254.556C396.461 254.907 397.168 255.315 397.86 255.714C397.923 255.751 397.986 255.787 398.048 255.823C398.219 255.921 398.278 256.14 398.18 256.311C398.083 256.483 397.866 256.543 397.696 256.445C397.634 256.409 397.573 256.373 397.511 256.338C396.814 255.936 396.133 255.543 395.414 255.205C395.236 255.122 395.159 254.909 395.242 254.729Z" fill="#2BC866"/>
<path fill-rule="evenodd" clip-rule="evenodd" d="M401.501 258.416C401.623 258.262 401.847 258.237 402 258.36C402.455 258.727 402.845 258.957 403.357 259.215C403.532 259.303 403.604 259.518 403.516 259.695C403.428 259.872 403.215 259.944 403.039 259.855C402.499 259.583 402.062 259.328 401.556 258.919C401.403 258.796 401.378 258.571 401.501 258.416Z" fill="#2BC866"/>
<path fill-rule="evenodd" clip-rule="evenodd" d="M405.358 261.36C405.437 261.179 405.646 261.097 405.826 261.176C406.394 261.428 406.863 261.747 407.325 262.12C407.479 262.243 407.503 262.468 407.381 262.623C407.258 262.777 407.035 262.802 406.882 262.679C406.45 262.33 406.034 262.05 405.541 261.832C405.361 261.752 405.279 261.541 405.358 261.36Z" fill="#2BC866"/>
<path fill-rule="evenodd" clip-rule="evenodd" d="M410.183 264.169C410.292 264.005 410.513 263.961 410.676 264.072C411.128 264.379 411.532 264.724 411.92 265.056C412.107 265.216 412.291 265.373 412.474 265.521C412.628 265.645 412.652 265.87 412.53 266.024C412.407 266.179 412.184 266.204 412.031 266.08C411.813 265.905 411.614 265.734 411.42 265.568C411.05 265.252 410.7 264.951 410.279 264.666C410.116 264.555 410.073 264.333 410.183 264.169Z" fill="#2BC866"/>
<path fill-rule="evenodd" clip-rule="evenodd" d="M415.517 267.737C415.633 267.577 415.856 267.543 416.014 267.66C416.245 267.832 416.481 267.988 416.726 268.15C416.782 268.188 416.84 268.226 416.898 268.264C417.2 268.465 417.51 268.679 417.806 268.927C417.957 269.054 417.977 269.279 417.852 269.431C417.726 269.583 417.502 269.604 417.351 269.477C417.088 269.256 416.805 269.061 416.507 268.862C416.452 268.826 416.397 268.789 416.342 268.753C416.096 268.59 415.841 268.421 415.593 268.237C415.435 268.12 415.401 267.896 415.517 267.737Z" fill="#2BC866"/>
<path fill-rule="evenodd" clip-rule="evenodd" d="M421.139 271.267C421.185 271.075 421.376 270.956 421.567 271.002C421.927 271.088 422.274 271.217 422.594 271.336C422.704 271.377 422.811 271.417 422.914 271.453C423.331 271.6 423.721 271.708 424.148 271.708C424.344 271.708 424.503 271.869 424.503 272.066C424.503 272.264 424.344 272.424 424.148 272.424C423.6 272.424 423.12 272.285 422.679 272.129C422.553 272.084 422.432 272.039 422.313 271.996C422.006 271.881 421.718 271.774 421.402 271.698C421.212 271.653 421.094 271.46 421.139 271.267Z" fill="#2BC866"/>
<path fill-rule="evenodd" clip-rule="evenodd" d="M427.891 273.575C427.947 273.385 428.145 273.278 428.333 273.335C428.657 273.433 428.961 273.539 429.25 273.64C429.272 273.648 429.294 273.656 429.316 273.663C429.583 273.758 429.836 273.847 430.09 273.926C430.636 274.096 431.171 274.215 431.782 274.215C431.978 274.215 432.137 274.375 432.137 274.573C432.137 274.77 431.978 274.931 431.782 274.931C431.075 274.931 430.465 274.792 429.881 274.61C429.613 274.527 429.348 274.433 429.084 274.34C429.061 274.332 429.039 274.324 429.016 274.316C428.727 274.215 428.436 274.113 428.129 274.02C427.941 273.964 427.835 273.764 427.891 273.575Z" fill="#2BC866"/>
<path fill-rule="evenodd" clip-rule="evenodd" d="M436.575 275.468C436.575 275.27 436.734 275.11 436.93 275.11H439.061C439.257 275.11 439.416 275.27 439.416 275.468C439.416 275.665 439.257 275.826 439.061 275.826H436.93C436.734 275.826 436.575 275.665 436.575 275.468Z" fill="#2BC866"/>
<path fill-rule="evenodd" clip-rule="evenodd" d="M445.611 273.715C445.786 273.804 445.858 274.019 445.77 274.196C445.594 274.55 445.259 274.743 444.965 274.86C444.714 274.96 444.438 275.024 444.223 275.074C444.185 275.083 444.148 275.092 444.114 275.1C443.923 275.146 443.732 275.027 443.686 274.834C443.641 274.642 443.759 274.449 443.95 274.403C443.991 274.393 444.033 274.383 444.075 274.374C444.291 274.323 444.507 274.272 444.704 274.194C444.942 274.099 445.077 273.992 445.135 273.875C445.222 273.699 445.436 273.627 445.611 273.715Z" fill="#2BC866"/>
<path fill-rule="evenodd" clip-rule="evenodd" d="M448.91 261.621C449.042 261.767 449.032 261.993 448.887 262.126C447.431 263.468 446.98 264.994 446.902 267.038C446.868 267.917 447.226 268.529 447.787 268.98C448.363 269.444 449.158 269.738 449.97 269.927C450.162 269.972 450.281 270.164 450.237 270.357C450.193 270.549 450.002 270.669 449.811 270.625C448.957 270.426 448.042 270.102 447.344 269.54C446.63 268.966 446.149 268.145 446.192 267.01C446.274 264.854 446.763 263.114 448.408 261.598C448.553 261.464 448.778 261.475 448.91 261.621Z" fill="#2BC866"/>
<path fill-rule="evenodd" clip-rule="evenodd" d="M350.365 260.356C350.504 260.496 350.504 260.722 350.365 260.862C350.067 261.163 349.745 261.432 349.438 261.689C349.376 261.741 349.315 261.792 349.254 261.843C348.889 262.151 348.549 262.453 348.256 262.807C348.131 262.959 347.907 262.98 347.756 262.853C347.606 262.727 347.585 262.501 347.711 262.349C348.047 261.942 348.429 261.606 348.799 261.294C348.864 261.239 348.928 261.185 348.992 261.132C349.298 260.875 349.59 260.631 349.863 260.356C350.002 260.216 350.226 260.216 350.365 260.356Z" fill="#2BC866"/>
<path fill-rule="evenodd" clip-rule="evenodd" d="M353.684 257.626C353.848 257.736 353.892 257.958 353.783 258.122C353.402 258.699 352.973 259.066 352.46 259.461C352.305 259.582 352.082 259.552 351.963 259.394C351.844 259.237 351.873 259.013 352.029 258.893C352.523 258.511 352.877 258.202 353.192 257.725C353.301 257.561 353.521 257.516 353.684 257.626Z" fill="#2BC866"/>
<path fill-rule="evenodd" clip-rule="evenodd" d="M357.251 254.057C357.408 254.176 357.44 254.4 357.322 254.558C356.982 255.016 356.634 255.427 356.226 255.847C356.089 255.988 355.864 255.991 355.724 255.852C355.584 255.714 355.582 255.487 355.719 255.346C356.104 254.95 356.431 254.562 356.754 254.129C356.872 253.97 357.094 253.938 357.251 254.057Z" fill="#2BC866"/>
<path fill-rule="evenodd" clip-rule="evenodd" d="M360.351 251.46C360.46 251.624 360.416 251.846 360.253 251.956C359.738 252.302 359.322 252.724 358.857 253.194C358.808 253.243 358.759 253.293 358.709 253.343C358.571 253.483 358.346 253.483 358.207 253.343C358.068 253.204 358.068 252.977 358.207 252.837C358.257 252.787 358.307 252.736 358.357 252.685C358.815 252.221 359.281 251.749 359.859 251.36C360.022 251.251 360.243 251.295 360.351 251.46Z" fill="#2BC866"/>
<path fill-rule="evenodd" clip-rule="evenodd" d="M362.744 248.5C362.905 248.612 362.946 248.835 362.834 248.998C362.818 249.022 362.801 249.045 362.785 249.069C362.435 249.579 362.095 250.073 361.779 250.592C361.677 250.761 361.458 250.814 361.291 250.71C361.124 250.607 361.072 250.386 361.174 250.218C361.501 249.681 361.85 249.172 362.198 248.666C362.215 248.641 362.233 248.616 362.25 248.59C362.362 248.428 362.583 248.387 362.744 248.5Z" fill="#2BC866"/>
<path fill-rule="evenodd" clip-rule="evenodd" d="M365.811 245.318C365.95 245.458 365.95 245.685 365.811 245.825L365.81 245.826C365.397 246.242 365.092 246.549 364.793 247.018C364.687 247.185 364.468 247.233 364.303 247.126C364.138 247.019 364.09 246.797 364.196 246.631C364.536 246.097 364.888 245.743 365.29 245.338C365.296 245.331 365.302 245.325 365.309 245.318C365.448 245.179 365.672 245.179 365.811 245.318Z" fill="#2BC866"/>
<path fill-rule="evenodd" clip-rule="evenodd" d="M368.086 242.783C368.241 242.904 368.268 243.129 368.148 243.285C367.831 243.696 367.546 244.077 367.282 244.507C367.179 244.675 366.96 244.727 366.793 244.623C366.626 244.519 366.575 244.298 366.678 244.13C366.964 243.665 367.268 243.259 367.588 242.846C367.708 242.689 367.931 242.661 368.086 242.783Z" fill="#2BC866"/>
<path fill-rule="evenodd" clip-rule="evenodd" d="M370.335 240.418C370.51 240.506 370.581 240.721 370.494 240.898C370.392 241.103 370.246 241.282 370.113 241.432C370.068 241.484 370.024 241.532 369.983 241.577C369.896 241.674 369.818 241.76 369.746 241.854C369.625 242.009 369.402 242.037 369.247 241.915C369.093 241.794 369.065 241.569 369.186 241.413C369.276 241.297 369.383 241.178 369.479 241.072C369.515 241.032 369.55 240.993 369.582 240.957C369.708 240.814 369.801 240.694 369.858 240.578C369.946 240.401 370.159 240.329 370.335 240.418Z" fill="#2BC866"/>
<path d="M257.53 94.7993C260.83 93.3129 264.338 92.0006 268.054 90.8625C271.848 89.7389 275.83 88.8873 280.001 88.3078C284.185 87.663 288.576 87.3955 293.175 87.5052C297.866 87.5641 302.829 88.0801 308.065 89.0531C315.41 90.4183 321.849 92.4615 327.38 95.1828C332.99 97.9185 337.556 101.205 341.078 105.043C344.614 108.816 347.041 113.06 348.359 117.775C349.769 122.44 349.947 127.383 348.893 132.606C347.892 137.567 346.202 141.723 343.823 145.074C341.457 148.36 338.754 151.109 335.713 153.32C332.672 155.532 329.43 157.334 325.987 158.726C322.623 160.133 319.402 161.431 316.324 162.62C313.338 163.758 310.664 164.954 308.303 166.209C306.02 167.478 304.401 169.073 303.445 170.995L297.396 184.095L272.546 179.476L273.149 163.232C273.17 159.917 274.12 157.215 276.001 155.126C277.895 152.972 280.245 151.173 283.049 149.73C285.945 148.237 289.088 146.924 292.478 145.793C295.882 144.597 299.11 143.267 302.162 141.802C305.227 140.272 307.902 138.466 310.187 136.385C312.563 134.253 314.094 131.489 314.779 128.095C315.569 124.178 314.632 120.786 311.968 117.921C309.394 115.004 305.412 113.045 300.02 112.043C295.878 111.273 292.328 110.986 289.37 111.181C286.49 111.391 283.942 111.764 281.726 112.3C279.601 112.786 277.724 113.25 276.094 113.692C274.464 114.134 272.907 114.217 271.422 113.941C268.062 113.317 265.805 111.644 264.652 108.924L257.53 94.7993ZM256.035 213.084C256.509 210.734 257.458 208.641 258.883 206.806C260.385 204.986 262.186 203.492 264.287 202.324C266.465 201.172 268.89 200.403 271.562 200.019C274.247 199.57 277.075 199.621 280.044 200.173C282.936 200.71 285.539 201.668 287.855 203.047C290.185 204.361 292.136 205.942 293.708 207.792C295.281 209.642 296.371 211.674 296.978 213.886C297.664 216.113 297.769 218.402 297.295 220.752C296.821 223.102 295.826 225.22 294.31 227.106C292.886 228.941 291.084 230.435 288.906 231.588C286.727 232.741 284.302 233.509 281.63 233.893C278.958 234.277 276.177 234.2 273.285 233.663C270.316 233.111 267.666 232.178 265.337 230.865C263.008 229.552 261.057 227.97 259.484 226.12C257.99 224.284 256.9 222.253 256.215 220.026C255.62 217.748 255.56 215.434 256.035 213.084Z" fill="#36383F"/>
<path d="M257.098 93.5999C259.989 92.1147 263.058 90.793 266.303 89.6347C269.616 88.4889 273.088 87.6009 276.717 86.9705C280.359 86.2773 284.174 85.9425 288.161 85.9659C292.229 85.939 296.524 86.3458 301.047 87.1864C307.393 88.3658 312.939 90.212 317.685 92.725C322.498 95.2505 326.396 98.3235 329.377 101.944C332.372 105.501 334.395 109.531 335.448 114.032C336.581 118.484 336.639 123.224 335.624 128.255C334.66 133.034 333.113 137.052 330.985 140.31C328.869 143.505 326.471 146.191 323.79 148.368C321.11 150.545 318.263 152.332 315.249 153.729C312.303 155.138 309.484 156.441 306.791 157.637C304.178 158.782 301.836 159.978 299.763 161.224C297.758 162.482 296.323 164.042 295.457 165.904L289.956 178.582L268.489 174.592L269.326 158.992C269.407 155.811 270.284 153.201 271.956 151.163C273.641 149.062 275.714 147.295 278.175 145.86C280.716 144.375 283.467 143.06 286.43 141.914C289.406 140.706 292.232 139.371 294.908 137.911C297.596 136.389 299.952 134.608 301.974 132.57C304.076 130.482 305.458 127.803 306.118 124.533C306.879 120.76 306.132 117.522 303.876 114.819C301.7 112.066 298.282 110.257 293.624 109.391C290.046 108.726 286.972 108.514 284.403 108.754C281.9 109.006 279.682 109.41 277.75 109.964C275.897 110.468 274.259 110.946 272.837 111.4C271.415 111.853 270.062 111.96 268.78 111.722C265.877 111.183 263.951 109.618 263.003 107.028L257.098 93.5999ZM253.515 207.137C253.972 204.873 254.836 202.848 256.107 201.062C257.446 199.289 259.037 197.823 260.882 196.665C262.794 195.52 264.913 194.739 267.238 194.323C269.576 193.845 272.028 193.843 274.593 194.32C277.091 194.784 279.331 195.657 281.314 196.939C283.309 198.158 284.971 199.641 286.299 201.389C287.627 203.136 288.534 205.066 289.018 207.179C289.57 209.304 289.617 211.498 289.16 213.762C288.703 216.025 287.799 218.076 286.448 219.912C285.177 221.698 283.585 223.164 281.673 224.309C279.761 225.454 277.642 226.235 275.317 226.651C272.992 227.067 270.58 227.043 268.083 226.579C265.517 226.102 263.237 225.254 261.242 224.035C259.246 222.816 257.584 221.333 256.256 219.586C254.995 217.851 254.089 215.921 253.537 213.796C253.066 211.62 253.059 209.401 253.515 207.137Z" fill="#41D679"/>
<path d="M162.13 125.75L161.777 126.146L162.179 126.475L171.848 134.407C173.692 136.128 176.037 136.625 178.804 135.956C180.051 135.655 181.223 135.051 182.317 134.158C183.353 133.313 184.562 132.371 185.945 131.331L185.945 131.331L185.95 131.327C187.361 130.239 189.066 129.156 191.071 128.078C193.107 127.002 195.732 126.07 198.959 125.29C203.128 124.282 206.524 124.426 209.191 125.647L209.191 125.647L209.203 125.652C211.905 126.804 213.565 128.832 214.209 131.78C214.775 134.371 214.552 136.762 213.557 138.972L213.555 138.975C212.583 141.18 211.245 143.318 209.536 145.391C207.803 147.429 205.899 149.427 203.825 151.387C201.709 153.325 199.829 155.316 198.186 157.363C196.576 159.365 195.412 161.489 194.704 163.734C193.962 165.998 194.156 168.393 195.236 170.893L199.985 182.876L200.141 183.269L200.554 183.169L220.07 178.452L220.454 178.359L220.461 177.962L220.668 166.495C220.743 164.916 221.359 163.333 222.559 161.739C223.857 160.082 225.4 158.362 227.191 156.58L227.192 156.578C229.05 154.712 230.976 152.721 232.972 150.605C235.055 148.446 236.858 146.052 238.379 143.424C239.91 140.78 241.013 137.855 241.691 134.652L241.692 134.649C242.365 131.359 242.258 127.72 241.389 123.74C240.47 119.535 238.729 115.929 236.16 112.935C233.645 109.878 230.464 107.541 226.627 105.922C222.778 104.252 218.352 103.339 213.357 103.173C208.419 102.992 203.047 103.607 197.243 105.01C193.108 106.01 189.313 107.255 185.86 108.748C182.463 110.172 179.335 111.805 176.478 113.648C173.617 115.435 170.978 117.361 168.562 119.426L168.562 119.426L168.559 119.429C166.21 121.475 164.067 123.582 162.13 125.75ZM198.779 206.832L198.777 206.839L198.775 206.846C198.307 208.72 198.287 210.627 198.709 212.56C199.131 214.493 199.946 216.223 201.152 217.743L201.159 217.751L201.166 217.759C202.417 219.201 203.907 220.361 205.633 221.236L205.633 221.236L205.642 221.24C207.432 222.1 209.41 222.629 211.573 222.83C213.744 223.033 216.02 222.844 218.399 222.269C220.718 221.708 222.814 220.84 224.682 219.661C226.543 218.487 228.104 217.103 229.357 215.508C230.612 213.911 231.476 212.177 231.943 210.309C232.461 208.371 232.508 206.43 232.085 204.492C231.662 202.555 230.819 200.854 229.558 199.398C228.363 197.933 226.867 196.771 225.076 195.911C223.289 195.052 221.312 194.524 219.152 194.321C216.969 194.066 214.716 194.222 212.395 194.783C210.014 195.359 207.891 196.26 206.032 197.493C204.172 198.667 202.613 200.05 201.361 201.644L201.361 201.644L201.355 201.652C200.165 203.232 199.306 204.959 198.779 206.832Z" fill="#36383F" stroke="black"/>
<path d="M161.801 125.352C163.425 123.335 165.231 121.379 167.217 119.484C169.256 117.576 171.493 115.804 173.926 114.168C176.349 112.482 179.011 111 181.914 109.721C184.858 108.381 188.107 107.281 191.659 106.422C196.643 105.218 201.259 104.757 205.507 105.04C209.808 105.31 213.619 106.275 216.94 107.935C220.251 109.546 223.007 111.814 225.209 114.74C227.453 117.604 229.01 121.027 229.88 125.008C230.706 128.791 230.867 132.211 230.363 135.267C229.847 138.274 228.964 141.003 227.713 143.454C226.463 145.904 224.966 148.126 223.225 150.119C221.536 152.1 219.906 153.961 218.333 155.704C216.802 157.384 215.483 159.013 214.376 160.59C213.323 162.155 212.779 163.754 212.745 165.387L212.801 176.377L195.941 180.453L191.566 168.856C190.609 166.519 190.412 164.34 190.975 162.317C191.527 160.245 192.467 158.288 193.795 156.448C195.166 154.544 196.743 152.696 198.529 150.902C200.303 149.058 201.928 147.172 203.404 145.243C204.87 143.264 206.011 141.206 206.829 139.07C207.688 136.871 207.835 134.477 207.269 131.889C206.617 128.903 205.04 126.795 202.539 125.565C200.08 124.273 197.021 124.07 193.363 124.954C190.553 125.633 188.253 126.477 186.464 127.486C184.728 128.482 183.247 129.495 182.021 130.525C180.837 131.493 179.801 132.372 178.913 133.163C178.025 133.954 177.078 134.471 176.07 134.715C173.79 135.266 171.893 134.755 170.377 133.183L161.801 125.352ZM195.467 208.943C195.075 207.151 195.056 205.401 195.408 203.691C195.813 201.969 196.5 200.388 197.47 198.948C198.492 197.496 199.781 196.241 201.336 195.184C202.88 194.077 204.66 193.28 206.675 192.793C208.636 192.319 210.542 192.225 212.39 192.512C214.228 192.749 215.909 193.286 217.431 194.123C218.954 194.96 220.228 196.067 221.254 197.443C222.334 198.807 223.069 200.384 223.461 202.176C223.852 203.968 223.85 205.75 223.456 207.522C223.104 209.232 222.417 210.813 221.394 212.265C220.372 213.718 219.083 214.972 217.528 216.03C215.973 217.087 214.214 217.852 212.252 218.327C210.238 218.814 208.311 218.939 206.473 218.702C204.636 218.465 202.955 217.928 201.433 217.091C199.963 216.241 198.689 215.134 197.61 213.77C196.572 212.344 195.858 210.735 195.467 208.943Z" fill="#41D679"/>
<path d="M302.756 43.3975L299.334 39.1229L307.64 33.3032L300.614 27.1334L304.138 22.9988L310.441 30.1268L313.119 20.1021L318.732 22.1612L314.327 31.5523L323.734 30.1875L323.731 35.6136L314.343 35.9913L317.088 45.7886L311.642 46.81L310.37 36.3685L302.756 43.3975Z" fill="#FFCE05"/>
<path d="M19.86 259.209L16.2732 257.685L19.5513 251.191L13.0608 249.701L13.8928 245.898L20.25 248.236L18.5756 241.014L22.799 240.397L23.1739 247.81L28.6376 243.745L30.4547 247.161L24.6713 250.599L29.6831 255.83L26.5972 258.329L22.2971 252.19L19.86 259.209Z" fill="#FFCE05"/>
<path d="M525.516 142.292L523.171 141.295L525.315 137.047L521.069 136.073L521.614 133.586L525.772 135.115L524.676 130.391L527.439 129.988L527.684 134.836L531.258 132.177L532.446 134.412L528.663 136.66L531.941 140.082L529.923 141.716L527.111 137.701L525.516 142.292Z" fill="#2BC866"/>
<defs>
<radialGradient id="paint0_radial_203_5705" cx="0" cy="0" r="1" gradientUnits="userSpaceOnUse" gradientTransform="translate(424.749 134.521) rotate(76.633) scale(142.756 140.626)">
<stop stop-color="#2BC866"/>
<stop offset="1" stop-color="#2BC866" stop-opacity="0.1"/>
</radialGradient>
<radialGradient id="paint1_radial_203_5705" cx="0" cy="0" r="1" gradientUnits="userSpaceOnUse" gradientTransform="translate(75.7162 195.614) rotate(76.5847) scale(81.4086 80.4623)">
<stop stop-color="#FFCE00"/>
<stop offset="1" stop-color="#FFCE00" stop-opacity="0.1"/>
</radialGradient>
</defs>
</svg>
